<svg width="64" height="62" viewBox="0 0 64 62" fill="none" xmlns="http://www.w3.org/2000/svg">
<g clip-path="url(#clip0_192_6903)">
<path d="M63.958 34.1608C63.8671 33.8092 63.7622 33.4506 63.6573 33.106L63.6084 32.9513C62.7135 29.9979 60.9656 27.6423 58.4137 25.9546C58.2739 25.8632 58.1271 25.7718 57.9733 25.6733C57.8964 25.6241 57.8194 25.5749 57.7286 25.5186L57.386 25.3006L57.7635 25.1459C57.8264 25.1178 57.8824 25.0967 57.9313 25.0756C58.0362 25.0334 58.1271 24.9912 58.2249 24.9561C59.1059 24.6256 60.0987 24.4217 61.2453 24.3302C61.6857 24.2951 61.9514 24.1193 62.0842 23.7888C62.2241 23.4442 62.1542 23.1348 61.8605 22.7692C60.1057 20.5963 57.9033 18.979 55.3095 17.9523C55.2326 17.9242 55.1557 17.889 55.0788 17.8539C55.0438 17.8398 55.0089 17.8258 54.9809 17.8117L54.8551 17.7554V17.3546L55.0019 17.3054C55.2256 17.2351 55.4493 17.1577 55.6731 17.0874C56.1904 16.9116 56.7288 16.7358 57.2671 16.5882C57.7425 16.4545 57.9872 16.2295 58.0502 15.8357C58.1131 15.456 57.9593 15.1466 57.5678 14.9075C57.4069 14.8091 57.2461 14.7036 57.0853 14.6052C56.7428 14.3872 56.3862 14.1551 56.0296 13.9442C54.5544 13.0652 52.7646 12.1229 50.7161 11.8768C50.3316 11.8276 49.954 11.7643 49.5555 11.694C49.3667 11.6588 49.171 11.6307 48.9612 11.5955L48.4648 11.5182L48.8703 11.2228C48.9473 11.1666 49.0172 11.1103 49.0801 11.0611C49.2059 10.9697 49.3108 10.8923 49.4157 10.815C50.4994 10.0555 51.7159 9.48597 53.0373 9.12031C53.8203 8.90232 53.9112 8.5015 53.9112 8.22023C53.9112 7.91083 53.8133 7.53111 53.0373 7.30609C52.6807 7.20061 52.3102 7.10216 51.9536 7.00372C51.2265 6.79979 50.4714 6.59587 49.7443 6.34272C47.4511 5.54812 44.9272 5.47077 42.0327 6.08957C41.5992 6.18099 41.1518 6.30053 40.7253 6.41304C40.5225 6.46929 40.3198 6.51852 40.117 6.57477L39.9982 6.6029L39.7185 6.32162L39.8374 6.17396C39.9492 6.04035 40.0541 5.89971 40.159 5.76611C40.3897 5.47077 40.6344 5.16137 40.9001 4.87306C41.5503 4.1769 42.2215 3.48075 42.8717 2.80569C43.2842 2.37675 43.7106 1.93374 44.1231 1.49776C44.4447 1.16023 44.5077 0.794575 44.3049 0.428918C44.1161 0.0913879 43.7736 -0.0633132 43.3261 -2.63387e-05L42.6689 0.0984198C41.6831 0.246089 40.6624 0.393758 39.6626 0.527364C37.8937 0.766447 36.1668 1.03366 34.5308 1.63137C32.0209 2.54551 30.1402 3.82531 28.7838 5.55515C28.5741 5.82236 28.3853 6.08957 28.1826 6.37788C28.0917 6.51149 27.9938 6.63806 27.9029 6.77166L27.798 6.91933L27.2946 6.65915C26.1201 6.05441 25.0154 5.70282 23.9248 5.59734C21.7085 5.37935 19.4292 5.47077 17.157 5.87158C15.5909 6.14583 14.0178 6.54664 12.5007 6.9334C11.9134 7.08107 11.3121 7.23577 10.7179 7.37641C10.3333 7.46782 10.0746 7.79129 10.0607 8.1921C10.0467 8.58589 10.2984 8.91638 10.7109 9.05702C10.7738 9.07812 10.8437 9.09921 10.9136 9.11328L10.9346 9.12031C12.2979 9.50003 13.5564 10.0977 14.675 10.8994C14.7589 10.9627 14.8428 11.0259 14.9407 11.1033C14.9896 11.1385 15.0386 11.1806 15.0945 11.2228L15.4651 11.5041L14.8988 11.6166C14.8498 11.6237 14.8218 11.6307 14.7939 11.6377C14.4513 11.701 14.1087 11.7573 13.7731 11.8135C13.039 11.9331 12.2769 12.0526 11.5638 12.2636C9.64815 12.8191 7.95622 13.8949 6.25729 15.0411C5.90771 15.2802 5.89373 15.6248 5.94267 15.8779C6.01258 16.2366 6.22932 16.4545 6.62783 16.5741C7.18016 16.7429 7.7255 16.9116 8.30579 17.0944C8.55049 17.1718 8.79519 17.2491 9.04689 17.3265L9.3615 17.4249L9.14477 17.6711C9.10981 17.7062 9.08884 17.7343 9.07485 17.7484C9.0399 17.7906 9.01193 17.8258 8.956 17.8469C8.87909 17.882 8.80218 17.9101 8.72528 17.9383L8.69032 17.9523C6.07551 18.979 3.85921 20.6174 2.09736 22.8184C1.83867 23.1419 1.77575 23.4513 1.91558 23.7818C2.04842 24.1052 2.30011 24.281 2.68464 24.3162C3.99904 24.4287 5.03378 24.6537 5.94267 25.0123C6.01258 25.0405 6.07551 25.0756 6.13843 25.1037C6.1664 25.1178 6.19436 25.1319 6.21534 25.1459L6.53695 25.3077L6.2433 25.5116C6.07551 25.6241 5.9147 25.7366 5.7539 25.8421C5.39733 26.0812 5.05475 26.3132 4.73314 26.5664C4.26471 26.932 3.81726 27.3399 3.39777 27.7618C1.78973 29.3932 0.685078 31.5238 0.0208871 34.2733C-8.73059e-05 34.3577 -8.73059e-05 34.4702 0.0138957 34.5686C0.104785 35.0679 0.489316 35.3422 1.00669 35.2789C1.71282 35.1804 2.43295 35.0679 3.1251 34.9624C3.43972 34.9132 3.76133 34.864 4.07594 34.8148C4.42552 34.7585 4.78208 34.7093 5.14564 34.653L6.05453 34.5124L5.85877 34.8851C5.8378 34.9273 5.81682 34.9624 5.80284 34.9976C5.77487 35.0538 5.7539 35.096 5.72593 35.1382C4.54437 37.1915 3.7823 39.3222 3.46069 41.4669C3.33485 42.2967 3.27892 43.1475 3.21599 43.9773C3.18803 44.3781 3.16006 44.793 3.1251 45.1938C3.11811 45.2641 3.11112 45.3415 3.10413 45.4118C3.0482 45.9884 2.99926 46.5299 3.17404 47.0572C3.31387 47.4792 3.55858 47.7604 3.85921 47.8518C4.15285 47.9362 4.49543 47.8307 4.82403 47.5565C5.14564 47.2823 5.48123 46.9588 5.8378 46.5791C6.50199 45.8689 7.35495 45.461 8.17295 45.0672C8.25685 45.025 8.33376 45.011 8.41765 44.9899C8.44562 44.9828 8.48058 44.9758 8.51553 44.9688L8.71829 44.9125L8.80918 45.2219C8.83015 45.2922 8.84413 45.3485 8.86511 45.4118L9.48036 47.7042C9.9418 49.434 10.4032 51.1639 10.8647 52.9007C10.9765 53.3226 11.2142 53.5547 11.5988 53.618C11.9763 53.6813 12.228 53.4914 12.5286 53.175C13.3327 52.303 14.1926 51.417 15.1574 50.4466C15.3812 50.2286 15.6259 50.0458 15.8846 49.8559C15.9964 49.7715 16.1223 49.6872 16.2341 49.5957L16.4579 49.42L16.5627 49.6872C16.5837 49.7505 16.6047 49.7997 16.6257 49.8489C16.6536 49.9333 16.6816 49.9966 16.7095 50.0599C16.9053 50.4818 17.0941 50.9107 17.2759 51.3256C17.6814 52.2538 18.1009 53.2172 18.5972 54.1102C20.1354 56.8737 22.2118 58.9411 24.7847 60.249C27.861 61.8171 31.1609 62.3305 34.6007 61.7749C38.2293 61.1913 41.2426 59.5248 43.5568 56.8315C45.1019 55.0314 46.3045 52.8867 47.3392 50.081C47.3672 50.0036 47.3951 49.9333 47.4301 49.8419L47.5839 49.434L47.8076 49.6028C47.8985 49.6731 47.9894 49.7364 48.0733 49.7997C48.2551 49.9263 48.4229 50.0528 48.5837 50.1864C49.9121 51.3045 50.835 52.2468 51.583 53.2383C51.9047 53.6602 52.3451 53.7727 52.7087 53.5195C52.9114 53.3789 53.0932 53.1398 53.1561 52.9359C53.6875 51.1217 54.1839 49.3285 54.7642 47.1979C54.89 46.7338 54.9949 46.2697 55.1068 45.7845C55.1557 45.5595 55.2116 45.3415 55.2606 45.1094L55.3095 44.8914L55.5262 44.9618C55.5682 44.9758 55.6101 44.9899 55.6521 44.9969C55.736 45.018 55.8129 45.0391 55.8968 45.0813L56.0226 45.1446C56.7987 45.5313 57.6027 45.9251 58.2319 46.6072C58.5675 46.9729 58.9101 47.3034 59.2457 47.5846C59.5673 47.8518 59.9239 47.9503 60.2245 47.8589C60.5182 47.7675 60.7349 47.5003 60.8468 47.1135C60.9516 46.7267 60.9516 46.2837 60.9586 45.8618C60.9586 45.7774 60.9586 45.6931 60.9586 45.6087C60.9586 45.4118 60.9376 45.2149 60.9167 45.0039C60.8957 44.8141 60.8747 44.6242 60.8747 44.4273C60.8258 41.1997 59.9798 38.0986 58.3508 35.2156C58.3158 35.1523 58.2809 35.082 58.2459 35.0046C58.2249 34.9695 58.211 34.9273 58.19 34.8851L58.0082 34.5194L58.6654 34.6179C58.8192 34.639 58.9521 34.6601 59.0919 34.6812C59.4904 34.7444 59.8889 34.8077 60.2804 34.871C61.1893 35.0187 62.1262 35.1664 63.0561 35.2929C63.3847 35.3351 63.6643 35.2437 63.8531 35.0327C63.9859 34.8148 64.0419 34.4983 63.958 34.1608ZM46.8988 45.5665C46.7589 46.122 46.6051 46.6775 46.4443 47.226C45.7242 49.6731 44.6055 52.8234 42.3753 55.4885C40.1799 58.1113 37.3344 59.6654 33.9156 60.1154C33.7408 60.1365 33.573 60.1576 33.4052 60.1717C32.8948 60.2209 32.3914 60.249 31.895 60.249C30.2311 60.249 28.637 59.9678 27.1338 59.4052C26.2319 59.0677 25.358 58.6317 24.519 58.0902C22.4635 56.7683 20.8135 54.8556 19.604 52.3944C18.9748 51.1146 18.4644 49.7997 18.0659 48.7097C18.01 48.555 17.954 48.4074 17.9051 48.2597C17.0871 45.9673 16.5837 43.6398 16.1992 41.5794C16.1432 41.2841 16.0943 40.9958 16.0454 40.7145C15.9964 40.4473 15.8776 40.2363 15.7028 40.1168C15.5839 40.0324 15.4511 39.9972 15.3043 40.0113C15.2763 40.0113 15.2553 40.0183 15.2274 40.0183C14.8848 40.0816 14.682 40.3348 14.668 40.6864C14.668 40.7708 14.675 40.8551 14.689 40.9465C14.717 41.0872 14.738 41.2208 14.7659 41.3614C14.8428 41.7763 14.9267 42.1912 15.0036 42.599C15.0596 42.8944 15.1225 43.1968 15.1784 43.4921C15.1854 43.5413 15.1924 43.5976 15.1994 43.6538C15.1994 43.6819 15.2064 43.7171 15.2134 43.7523L15.2483 44.0406L14.9617 43.9843C13.9409 43.7804 13.1509 43.3655 12.5496 42.7116C11.1443 41.1856 10.7039 39.3784 11.2492 37.3392C11.5848 36.0946 12.7244 35.1031 14.0248 34.9273L14.2625 34.8921V35.1312C14.2625 35.1945 14.2625 35.2578 14.2625 35.3211C14.2625 35.3843 14.2625 35.4476 14.2625 35.5109C14.2625 35.5742 14.2625 35.6375 14.2695 35.6937L14.2905 36.0383C14.3324 36.7274 14.3814 37.4376 14.4443 38.1408C14.4653 38.3659 14.5492 38.5487 14.689 38.6612C14.8218 38.7737 14.9966 38.8229 15.1994 38.8018C15.4091 38.7807 15.5769 38.6753 15.6818 38.5135C15.6958 38.4924 15.7028 38.4784 15.7168 38.4573C15.7377 38.4151 15.7517 38.3729 15.7657 38.3307C15.7937 38.2393 15.8007 38.1408 15.7937 38.0354C15.7727 37.6416 15.7377 37.2408 15.7098 36.861C15.6888 36.5868 15.6678 36.3196 15.6468 36.0453C15.6399 35.9117 15.6399 35.7852 15.6399 35.6445C15.6399 35.5742 15.6399 35.5039 15.6399 35.4265V35.096L16.339 35.4195C16.6187 35.5461 16.8843 35.6726 17.15 35.7922C17.4017 35.9047 17.6464 36.0242 17.8981 36.1438C18.4714 36.411 19.0657 36.6923 19.653 36.9524C19.9536 37.0861 20.0655 37.2829 20.0445 37.6134C19.9676 38.5346 20.1424 39.4277 20.5549 40.2645C20.7856 40.7286 21.1491 40.8973 21.5267 40.7145C21.9042 40.5387 22.0091 40.1379 21.7924 39.6738C21.261 38.5135 21.275 37.2408 21.8343 36.1789C21.9741 35.9188 22.1419 35.6726 22.3307 35.4547C22.4286 35.3422 22.5265 35.2437 22.6383 35.1453C22.6943 35.096 22.7502 35.0468 22.8061 35.0046C23.3165 34.5968 23.9457 34.3155 24.6379 34.1889C25.6027 34.0202 26.5885 34.2592 27.3995 34.857C28.2525 35.4828 28.8328 36.4602 28.9796 37.5361C29.1054 38.4291 28.8607 39.3714 28.3084 40.152C28.2735 40.2012 28.2315 40.2574 28.1965 40.3067C28.0777 40.4614 27.9449 40.602 27.812 40.7356C27.2177 41.3122 26.4627 41.6708 25.6726 41.7552C25.6377 41.7552 25.6097 41.7622 25.5747 41.7622C24.7777 41.8326 24.0506 41.6779 23.3584 41.3052C23.1137 41.1716 22.883 41.1364 22.6943 41.1927C22.5334 41.2419 22.4076 41.3544 22.3237 41.5232C22.2328 41.699 22.2118 41.8748 22.2608 42.0365C22.3237 42.2263 22.4775 42.3951 22.7222 42.5147C24.7008 43.5272 26.5675 43.3936 28.2665 42.1349C30.0003 40.8411 30.6715 39.055 30.252 36.8188C30.2451 36.7696 30.2311 36.7134 30.2241 36.6571L30.1751 36.3969L30.322 36.3266C31.084 35.975 31.8531 35.8766 32.6012 36.0242C32.8878 36.0805 33.1675 36.1719 33.4471 36.3055L33.566 36.3618V36.4954C33.566 36.7485 33.552 37.0017 33.545 37.2408C33.5241 37.747 33.5031 38.2252 33.559 38.6893C33.8457 41.0872 35.9361 43.042 38.3132 43.1405C40.921 43.246 43.1793 41.5513 43.6897 39.0901C43.7526 38.7878 43.7666 38.4713 43.7806 38.1338C43.7875 37.9439 43.7945 37.74 43.8155 37.5431C43.8295 37.4095 43.8994 37.1634 44.0742 37.079C45.2278 36.5305 46.4093 35.9821 47.549 35.4547L47.9055 35.2929C47.9615 35.2648 48.0104 35.2648 48.0663 35.2578C48.0943 35.2578 48.1223 35.2507 48.1642 35.2437L48.4299 35.2015L48.4089 35.4687C48.3879 35.743 48.367 36.0242 48.346 36.2915C48.304 36.8962 48.2621 37.4658 48.2062 38.0424C47.9475 40.6301 47.521 43.1475 46.8988 45.5665ZM61.7836 33.0498C61.7836 33.0638 61.7836 33.0779 61.7836 33.099V33.3451L61.5459 33.3099C61.3851 33.2888 61.2173 33.2607 61.0565 33.2396C60.7139 33.1904 60.3573 33.1341 60.0078 33.0849C59.3646 32.9865 58.7283 32.881 58.0851 32.7826C57.4699 32.6841 56.8616 32.5857 56.2464 32.4942C55.7989 32.4239 55.4493 32.5716 55.2606 32.9091C55.0648 33.2677 55.1067 33.6053 55.3934 33.978C56.8476 35.8344 57.8964 37.9369 58.5116 40.2223C58.8961 41.6708 59.0849 43.0842 59.0919 44.5469V44.9196L58.7773 44.7297C58.6444 44.6523 58.5116 44.575 58.3788 44.4976C58.0921 44.3289 57.8194 44.1742 57.5538 43.9984C56.7008 43.4429 55.715 43.2038 54.7781 43.028C54.2678 42.9295 53.8762 43.2249 53.7364 43.8085C53.3309 45.5173 52.8835 47.3596 52.3381 49.6098C52.2822 49.8348 52.2193 50.0599 52.1494 50.2919C52.1144 50.4044 52.0864 50.5169 52.0515 50.6365L51.9536 50.974L51.7019 50.7349C51.5691 50.6083 51.4502 50.4888 51.3314 50.3693C51.0867 50.1231 50.8489 49.8911 50.6042 49.6872C49.7373 48.991 48.8773 48.3441 48.1432 47.8026C48.0104 47.7042 47.7937 47.5424 47.8846 47.1908C48.0034 46.7338 48.1293 46.2486 48.2551 45.7001C48.318 45.4399 48.4718 45.3063 48.7445 45.2782C49.5835 45.2079 50.4155 44.9266 51.2195 44.4484C51.59 44.2304 51.7089 43.8929 51.5271 43.5694C51.3453 43.246 50.9888 43.1757 50.5972 43.3796C50.3875 43.4921 50.1218 43.6327 49.8492 43.7382C49.6604 43.8085 49.4716 43.8648 49.2689 43.921C49.178 43.9492 49.0801 43.9773 48.9752 44.0054L48.6396 44.1039L48.7026 43.7593C49.192 41.2208 49.6953 38.2041 49.7303 35.1101V34.8851L49.954 34.9062C51.2614 35.0257 52.4919 36.1719 52.8135 37.5642C53.1142 38.8722 52.9324 40.2152 52.2752 41.5583C52.2472 41.6075 52.2193 41.6568 52.1983 41.706C52.1703 41.7482 52.1494 41.7904 52.1284 41.8326C51.9746 42.1631 52.0724 42.5147 52.3731 42.6764C52.6737 42.8381 53.0093 42.7397 53.1911 42.4373C53.6176 41.7412 53.9042 40.9395 54.058 40.0535C54.2818 38.7667 54.2188 37.7189 53.8623 36.7696C53.1841 34.9624 51.8627 33.9006 49.9331 33.6123C49.122 33.4928 48.5557 33.0849 48.1013 32.2903C47.4581 31.1582 47.1784 29.9065 47.2833 28.5494C47.3392 27.8321 47.4231 27.1008 47.5 26.3976L47.542 26.032C47.7307 24.3232 47.3322 22.7903 46.3185 21.3347C44.9202 19.3306 43.2212 18.2195 41.1238 17.9383C40.949 17.9172 40.7602 17.8891 40.5715 17.868C40.138 17.8187 39.8024 18.0508 39.7535 18.4305C39.6975 18.8524 39.9492 19.1618 40.4177 19.2462C40.5225 19.2673 40.6274 19.2814 40.7323 19.3025C41.2147 19.3798 41.7181 19.4642 42.1865 19.633C43.431 20.0689 44.5286 20.9901 45.2767 22.2277C46.0178 23.4513 46.3324 24.8576 46.1646 26.1796C46.0598 26.9953 45.9689 27.7266 45.9269 28.472C45.8081 30.4691 46.2905 32.1919 47.4091 33.7319L47.5629 33.9428L43.417 35.8625L43.3191 35.7008C43.2772 35.6305 43.2352 35.5601 43.1933 35.4898C43.1094 35.3492 43.0325 35.2156 42.9486 35.089C42.6689 34.653 42.2914 34.5335 41.9348 34.7655C41.5852 34.9906 41.5293 35.3984 41.795 35.8274C42.6899 37.2689 42.6409 38.9706 41.6621 40.2785C40.5994 41.6849 38.6698 42.1771 37.0757 41.4458C35.4747 40.7075 34.5658 38.9284 34.9223 37.2126C35.2929 35.4195 36.7961 34.1608 38.5719 34.1608C38.5719 34.1608 38.5719 34.1608 38.5789 34.1608C39.0403 34.1608 39.5018 34.2663 39.8933 34.3647C40.2708 34.4632 40.7323 34.4069 40.8791 33.9709C41.0119 33.5701 40.8022 33.2115 40.3268 33.0427C38.3342 32.3325 36.006 33.0005 34.6567 34.6671C34.5938 34.7515 34.5238 34.8288 34.4749 34.8991L34.3211 35.096L34.1882 35.0609C34.0065 35.0117 33.8247 34.9624 33.6569 34.9132C33.2724 34.8077 32.9088 34.7023 32.5383 34.639C31.7203 34.4913 30.8883 34.6038 29.9934 34.9765C29.7906 35.0609 29.5599 35.1242 29.3152 34.8148C28.1896 33.3943 26.5605 32.6419 24.8476 32.7685C23.1347 32.888 21.6176 33.8655 20.7017 35.4406C20.6737 35.4828 20.6458 35.525 20.6178 35.5742C20.6038 35.5953 20.5828 35.6234 20.5688 35.6516L20.471 35.7992L16.4299 33.9287L16.5977 33.7178C17.136 33.0357 17.5206 32.2411 17.8142 31.2144C18.1288 30.1175 18.1778 28.9291 17.989 27.361C17.975 27.2485 17.961 27.136 17.947 27.0234C17.8352 26.1585 17.7233 25.2655 17.8631 24.3654C18.0729 23.0504 18.814 22.0449 19.59 21.1589C20.8555 19.7033 22.5614 19.0845 24.9595 19.2251C25.7146 19.2673 26.4697 19.3798 27.2038 19.4923C27.6652 19.5626 28.1406 19.633 28.609 19.6822C31.5455 20.0127 34.426 19.9213 37.1806 19.422C37.2156 19.415 37.2505 19.4079 37.2855 19.4009C37.4113 19.3798 37.5302 19.3587 37.642 19.3235C38.0126 19.2181 38.2223 18.8805 38.1314 18.5219C38.0406 18.1352 37.7189 17.9383 37.3064 17.9945C37.0268 18.0297 36.7471 18.0719 36.4675 18.1141C35.7054 18.2266 34.9223 18.3391 34.1463 18.4024C31.7342 18.5922 29.2593 18.4586 26.7913 18.0227C24.5959 17.6289 22.7222 17.7695 21.0582 18.4446C18.1358 19.633 16.1642 22.9168 16.4788 26.0812C16.5068 26.3625 16.5348 26.6508 16.5697 26.932C16.6257 27.4665 16.6886 28.022 16.7305 28.5705C16.8284 29.8432 16.5907 31.0246 16.0244 32.0864C15.8286 32.4521 15.542 32.7685 15.2693 33.0779C15.1854 33.1693 15.1085 33.2607 15.0246 33.3521C14.9197 33.4787 14.7449 33.5068 14.5771 33.5279C12.5636 33.76 11.1933 34.646 10.3893 36.2352C9.6901 37.6134 9.6132 39.1534 10.1655 40.9395C10.9416 43.4499 12.6615 44.9125 15.2973 45.2922C15.4721 45.3204 15.6678 45.4891 15.7168 45.6509C15.8636 46.1361 15.9964 46.6494 16.1293 47.226C16.1642 47.3877 16.1083 47.6339 15.9615 47.7393C15.7168 47.9222 15.4651 48.098 15.2204 48.2667C14.8358 48.5339 14.4373 48.8082 14.0738 49.1035C13.6613 49.441 13.2767 49.7997 12.8712 50.1864C12.6964 50.3552 12.5147 50.524 12.3259 50.6998L12.1022 50.9037L11.9903 50.6224C11.9833 50.6013 11.9693 50.5732 11.9623 50.5521C11.9344 50.4958 11.9064 50.4255 11.8924 50.3552L11.6128 49.216C11.1793 47.4581 10.7318 45.6368 10.2984 43.8507C10.1306 43.1686 9.78099 42.9506 9.0399 43.0702C7.57168 43.3022 6.35517 44.0265 5.25051 44.7649L4.90793 44.9969L4.92891 44.582C4.9359 44.4203 4.94289 44.2726 4.94289 44.125C4.94988 43.8156 4.96386 43.5272 4.99183 43.2389C5.30645 39.8496 6.488 36.7907 8.50155 34.1538L8.52952 34.1116C8.57846 34.0553 8.62041 33.992 8.66235 33.9287C8.84413 33.6756 9.01193 33.2888 8.76024 32.888C8.55049 32.5505 8.24287 32.4239 7.82338 32.4872C6.79563 32.6489 5.76089 32.8107 4.73314 32.9724C4.20878 33.0568 3.69141 33.1341 3.16705 33.2185C3.01324 33.2396 2.85943 33.2607 2.69862 33.2888C2.61473 33.3029 2.53083 33.3099 2.44693 33.324L2.11134 33.3732L2.21621 33.0498C2.54481 32.0231 3.01324 31.0949 3.64946 30.2089C4.94289 28.4087 6.63483 27.1149 8.67634 26.3695C9.03989 26.2359 9.30557 26.0812 9.42443 25.7507C9.57125 25.3428 9.42443 24.9701 9.01892 24.6889C7.87931 23.9083 6.59987 23.3317 5.21556 22.9801C5.14564 22.959 5.06873 22.945 4.97085 22.9168C4.91492 22.9028 4.852 22.8817 4.77509 22.8606L4.36959 22.7481L4.69819 22.4879C4.90793 22.3262 5.11068 22.1644 5.29945 22.0097C5.72593 21.6722 6.12445 21.3487 6.55093 21.0534C8.0541 20.0056 9.78798 19.2814 11.6897 18.9087C11.8505 18.8805 12.0392 18.9016 12.263 18.972C12.8013 19.1548 13.2697 18.979 13.4585 18.5149C13.6473 18.0508 13.4236 17.5867 12.8852 17.3406C12.0462 16.9468 11.2282 16.553 10.3613 16.1311C10.0047 15.9553 9.64815 15.7865 9.27761 15.6107L8.91405 15.4349L9.26362 15.238C10.3263 14.6333 11.431 14.0075 12.6894 13.7895C14.0388 13.5574 15.4091 13.3535 16.7445 13.1636L17.3248 13.0793C17.8002 13.0089 18.0589 12.8331 18.1847 12.4886C18.3176 12.144 18.2337 11.8346 17.9191 11.483C16.9053 10.3509 15.7447 9.42971 14.3674 8.64917L13.9199 8.39603L14.4163 8.26242C14.5282 8.23429 14.6261 8.20617 14.724 8.17804C14.9337 8.12178 15.1295 8.06553 15.3182 8.0163C15.5979 7.94599 15.8915 7.87567 16.2062 7.80535C17.5905 7.49595 19.0936 7.33421 20.9324 7.31312C22.0161 7.29905 22.9949 7.29202 23.9877 7.39047C24.9315 7.48188 25.8684 7.82645 26.9451 8.45931L27.0989 8.55073L27.029 8.71949C26.9521 8.91638 26.8752 9.10625 26.7983 9.29611C26.6025 9.77427 26.4067 10.2735 26.225 10.7658C26.1341 11.0119 26.0991 11.2158 26.1131 11.3846C26.148 11.7713 26.4347 12.0596 26.8472 12.1089C27.2667 12.1651 27.5953 11.9612 27.7631 11.5533C27.9938 10.9978 28.2175 10.4282 28.4343 9.87975C28.5182 9.66879 28.6021 9.45784 28.6859 9.24688C29.6298 6.86308 31.3008 5.07698 33.6429 3.93782C35.3348 3.11509 37.1526 2.6088 39.2011 2.38378C39.4948 2.34862 39.7744 2.30643 40.103 2.2572C40.2638 2.23611 40.4246 2.20798 40.6064 2.18689L41.2007 2.1025L40.7882 2.53848C40.7323 2.59473 40.6833 2.64396 40.6414 2.69318C40.5575 2.78459 40.4876 2.85491 40.4177 2.93226C39.4528 3.88157 38.3901 5.06292 37.7958 6.56071C37.5791 7.11623 37.4043 7.67174 37.2785 8.10069C37.1596 8.50854 37.2505 8.83904 37.5511 9.07812C37.8448 9.31017 38.1664 9.33127 38.5789 9.1414C40.977 7.99521 43.5079 7.4186 46.0947 7.43969C47.3322 7.44672 48.4648 7.79129 49.6674 8.15694L50.1778 8.31164L49.8002 8.55776C49.7653 8.58589 49.7303 8.60698 49.6953 8.62808C49.6324 8.67027 49.5765 8.71246 49.5136 8.74762C48.2761 9.45081 47.1365 10.365 46.1437 11.4619C45.8081 11.8276 45.7242 12.137 45.857 12.4886C45.9899 12.8331 46.2485 13.0019 46.7589 13.0793L47.4371 13.1777C48.8214 13.3816 50.2547 13.5996 51.66 13.8598C52.6527 14.0426 53.5407 14.5419 54.4006 15.02C54.5125 15.0833 54.6313 15.1466 54.7432 15.2099L55.0928 15.4068L54.7362 15.5896C54.5544 15.681 54.3726 15.7654 54.1979 15.8568C53.7993 16.0537 53.4148 16.2366 53.0513 16.4475C52.6318 16.6796 52.2402 16.9468 51.7788 17.2702C51.4572 17.4953 51.3383 17.7906 51.4083 18.1563C51.4852 18.536 51.7229 18.768 52.1144 18.8524C53.8413 19.2181 55.3025 19.7595 56.582 20.4979C57.5957 21.0886 58.4836 21.7566 59.2946 22.5301L59.5673 22.7903L59.029 22.9309C58.9171 22.959 58.8192 22.9872 58.7213 23.0153C57.1622 23.4372 55.8199 24.0841 54.6313 24.9842C54.4286 25.1389 54.2258 25.2866 54.0161 25.4413C53.8203 25.5889 53.6176 25.7366 53.4218 25.8843C52.9743 26.2218 52.8695 26.7211 53.1631 27.1289C53.4707 27.5579 53.9741 27.6141 54.4426 27.2766C54.5544 27.1992 54.6663 27.1149 54.7712 27.0375C54.939 26.9109 55.1137 26.7773 55.2955 26.6578C55.4284 26.5664 55.6661 26.5172 55.8269 26.5875C58.7144 27.8462 60.7139 29.9839 61.7766 32.9302C61.7906 32.9654 61.7836 33.0076 61.7836 33.0498Z" fill="black"/>
<path d="M25.4561 36.3125C24.4214 36.3125 23.4216 36.9383 22.8483 37.6345C22.7014 37.8173 22.7014 38.0986 22.8553 38.2674C23.6523 39.1323 24.5122 39.5823 25.4771 39.6245C26.4699 39.5893 27.2529 39.1604 27.8751 38.3025C28.022 38.0986 28.015 37.8736 27.8612 37.6697C27.3298 36.9876 26.7495 36.5727 26.1063 36.3969C25.8896 36.3406 25.6728 36.3125 25.4561 36.3125Z" fill="#FF0606"/>
<path d="M22.2258 31.9879C22.904 31.5941 23.6102 31.3972 24.3792 31.3972H24.3862C25.7146 31.3972 27.008 31.8332 28.3504 32.7122C28.7279 32.9583 29.1264 32.902 29.3502 32.5715C29.5809 32.227 29.49 31.8402 29.1125 31.58C27.5813 30.5323 26.0292 30.019 24.3652 30.019C24.3443 30.019 24.3303 30.019 24.3093 30.019H24.3023H24.2953C23.2886 29.9768 22.2538 30.3073 21.1282 31.0315C20.8066 31.2355 20.7157 31.6152 20.9115 31.9457C21.0932 32.2551 21.4568 32.3676 21.7994 32.2059C21.9112 32.1566 22.0161 32.0934 22.135 32.023L22.2258 31.9879Z" fill="black"/>
<path d="M35.5866 32.7755C35.7194 32.6981 35.8593 32.6138 35.9851 32.5294C36.1459 32.4309 36.3137 32.3254 36.4815 32.234C37.9008 31.4676 39.2292 31.2285 40.5575 31.5027C40.998 31.5941 41.4105 31.8051 41.802 32.016C41.9139 32.0723 42.0188 32.1286 42.1306 32.1848C42.3893 32.3114 42.676 32.3114 42.8927 32.1778C43.0815 32.0582 43.1863 31.8613 43.1933 31.6152C43.1933 31.334 43.0954 31.1441 42.8927 31.0386C42.7599 30.9683 42.634 30.898 42.5012 30.8277C42.0607 30.5886 41.6063 30.3425 41.1378 30.2229C40.5785 30.0823 40.0192 30.012 39.4599 30.012C37.9078 30.012 36.3696 30.5604 34.7896 31.6715C34.4819 31.8895 34.4889 32.3114 34.6707 32.5786C34.8944 32.8739 35.265 32.9583 35.5866 32.7755Z" fill="black"/>
<path d="M38.4531 36.3125C37.5862 36.3336 36.8171 36.8047 36.104 37.747C35.9781 37.9158 35.9921 38.1408 36.1459 38.3447C36.6144 38.9705 37.1667 39.3573 37.8239 39.5331C38.9006 39.8214 40.5506 39.1885 41.1518 38.2603C41.2987 38.0353 41.2777 37.754 41.1099 37.5782C40.3408 36.7485 39.4949 36.3477 38.4531 36.3125Z" fill="black"/>
<path d="M39.9911 53.9134C40.0331 53.6954 40.0471 53.4493 40.0191 53.175C39.9842 52.7883 39.9142 52.3875 39.8513 52.0007L39.8373 51.9023C39.4878 49.8138 38.3901 48.5621 36.4814 48.0839C35.9571 47.9503 35.3908 47.8027 34.7545 47.6339C34.6636 47.6128 34.5728 47.5777 34.4889 47.5425C34.4539 47.5284 34.4189 47.5144 34.384 47.5003L33.6289 47.2261L34.4189 47.0925C35.7473 46.8674 36.4535 46.2135 36.5793 45.1024C36.6282 44.6805 36.4255 44.3711 36.0689 44.3289C35.8872 44.3078 35.7333 44.343 35.6145 44.4344C35.4747 44.5399 35.3908 44.7157 35.3628 44.9407C35.3208 45.2571 35.216 45.4751 35.0342 45.6087C34.8524 45.7423 34.6147 45.7845 34.3141 45.7423C33.9995 45.6931 33.7757 45.7845 33.566 46.0447C33.1745 46.5299 32.6151 46.8112 32.0209 46.8112H32.0139C31.4126 46.8112 30.8323 46.5229 30.4408 46.0166C30.259 45.7845 30.0563 45.7001 29.7766 45.7353C29.0495 45.8197 28.7698 45.6087 28.651 44.8844C28.588 44.5118 28.3224 44.2938 27.9728 44.3289C27.6302 44.3641 27.4135 44.6383 27.4275 45.0181C27.4624 45.9814 28.1476 46.7831 29.0914 46.9729C29.1963 46.994 29.3082 47.0081 29.42 47.0292C29.476 47.0362 29.5249 47.0432 29.5808 47.0503L30.0003 47.1206L29.6927 47.4159C29.5738 47.5284 29.441 47.6058 29.2732 47.648C29.0495 47.7042 28.8258 47.7675 28.602 47.8238C28.2804 47.9081 27.9448 47.9925 27.6162 48.0839C26.7073 48.3371 25.5817 48.7731 24.9315 49.856C24.3093 50.8967 24.0086 52.1132 23.9946 53.6883C23.9877 54.047 24.1205 54.3704 24.3652 54.5814C24.6309 54.8134 24.9944 54.9119 25.3999 54.8556C25.6237 54.8275 25.8544 54.7642 26.0781 54.7009L26.1201 54.6869C26.7143 54.5251 27.3156 54.3493 27.8959 54.1876L28.7139 53.9556L28.7908 54.1103C28.8118 54.1454 28.8258 54.1735 28.8327 54.1876C28.8537 54.2298 28.8817 54.272 28.8817 54.3423C28.8817 54.4759 28.8817 54.6166 28.8817 54.7502C28.8817 54.94 28.8817 55.1299 28.8887 55.3197C28.9236 56.8949 29.6717 58.0411 31.1959 58.8216C31.5734 59.0185 31.937 59.0748 32.3075 58.9974C33.8107 58.688 35.1111 57.0636 35.1461 55.4463C35.153 55.1932 35.153 54.926 35.1461 54.6517C35.1461 54.5111 35.1461 54.3704 35.1461 54.2157V53.9556L35.4047 54.0118C35.5516 54.047 35.6984 54.0751 35.8382 54.1103C36.1388 54.1735 36.4185 54.2368 36.6982 54.3072C36.9429 54.3704 37.1876 54.4478 37.4253 54.5181C37.8448 54.6447 38.2712 54.7713 38.6977 54.8486C39.32 54.9752 39.8513 54.5955 39.9911 53.9134ZM28.7279 52.6406C28.0707 52.7812 27.3995 52.9359 26.7563 53.0906C26.5465 53.1399 26.3368 53.1891 26.1201 53.2383C26.0222 53.2594 25.9243 53.2875 25.8194 53.3227C25.7705 53.3368 25.7215 53.3508 25.6726 53.3649L25.5817 53.393L25.2671 53.1891L25.309 53.0414C25.365 52.8305 25.4209 52.6195 25.4768 52.4015C25.6027 51.9163 25.7355 51.41 25.9033 50.9248C26.1131 50.299 26.6165 49.8489 27.3506 49.6169C28.1965 49.3497 29.0705 49.1106 29.9094 48.8715C30.231 48.7801 30.5527 48.6957 30.8673 48.6043C30.9302 48.5832 30.9861 48.5902 31.0281 48.5902C31.0421 48.5902 31.049 48.5902 31.063 48.5902H31.2518L31.2728 48.7801C31.4056 50.1584 31.077 51.1498 30.252 51.9093C29.8535 52.2749 29.3711 52.507 28.7279 52.6406ZM34.1043 55.3057C34.1113 56.4097 33.559 57.2676 32.4613 57.8582C32.3355 57.9286 32.1677 57.9637 31.9929 57.9637C31.8181 57.9637 31.6433 57.9286 31.5105 57.8512C30.4128 57.2465 29.8675 56.3886 29.8885 55.2916C29.8955 54.8486 29.8955 54.4759 29.8885 54.1384C29.8815 53.9556 29.9164 53.7165 30.2171 53.5618C30.4338 53.4493 30.6505 53.3086 30.8743 53.161C30.9791 53.0977 31.084 53.0274 31.1889 52.957L31.5105 52.7531V53.1328C31.5105 53.3297 31.5105 53.5196 31.5105 53.7094C31.5105 54.1595 31.5105 54.5884 31.5105 55.0244C31.5105 55.3338 31.6643 55.5518 31.909 55.594C32.0698 55.6221 32.2166 55.594 32.3285 55.5026C32.4404 55.4112 32.5103 55.2705 32.5173 55.0947C32.5312 54.7502 32.5312 54.3915 32.5312 54.047C32.5312 53.8712 32.5312 53.6954 32.5312 53.5196C32.5312 53.4352 32.5382 53.3578 32.5452 53.2735C32.5452 53.2383 32.5522 53.1961 32.5522 53.161L32.5732 52.8164L32.8738 52.9922C32.9717 53.0484 33.0626 53.1047 33.1605 53.161C33.4262 53.3157 33.6778 53.4633 33.9225 53.6251C34.0973 53.7446 34.1183 54.0118 34.1183 54.061C34.1253 54.3282 34.1253 54.5955 34.1253 54.8486C34.1043 55.0103 34.1043 55.158 34.1043 55.3057ZM38.2573 53.3297C38.1734 53.3086 38.1035 53.2946 38.0335 53.2735C37.7469 53.2102 37.4602 53.1399 37.1806 53.0695C36.5513 52.9148 35.9081 52.7601 35.2649 52.6406C33.8666 52.3804 32.7899 51.1639 32.713 49.7435C32.699 49.5325 32.706 49.3286 32.706 49.0965C32.706 48.984 32.706 48.8645 32.706 48.7379V48.4566L32.9787 48.541C33.1185 48.5832 33.2584 48.6254 33.3912 48.6676C33.6778 48.759 33.9505 48.8364 34.2232 48.9137C34.3281 48.9418 34.4259 48.97 34.5308 48.9981C34.9783 49.1247 35.4397 49.2512 35.8941 49.3497C37.3763 49.6591 38.2503 50.5732 38.481 52.064C38.5159 52.289 38.5509 52.514 38.5859 52.7531L38.6907 53.4282L38.2573 53.3297Z" fill="black"/>
<path d="M26.1063 36.404C25.8896 36.3477 25.6728 36.3196 25.4561 36.3196C24.4214 36.3196 23.4216 36.9454 22.8483 37.6416C22.7014 37.8244 22.7014 38.1057 22.8553 38.2744C23.6523 39.1394 24.5122 39.5894 25.4771 39.6316C26.4699 39.5964 27.2529 39.1675 27.8751 38.3096C28.022 38.1057 28.015 37.8807 27.8612 37.6767C27.3228 36.9946 26.7495 36.5798 26.1063 36.404Z" fill="black"/>
</g>
<defs>
<clipPath id="clip0_192_6903">
<rect width="64" height="62" fill="white"/>
</clipPath>
</defs>
</svg>
