<svg width="17" height="15" viewBox="0 0 17 15" fill="none" xmlns="http://www.w3.org/2000/svg">
<path d="M2.99641 5.83212C2.40378 5.83212 1.82445 5.6611 1.3317 5.34068C0.838938 5.02026 0.454881 4.56483 0.22809 4.03199C0.00129834 3.49915 -0.0580407 2.91283 0.0575765 2.34717C0.173194 1.78151 0.458574 1.26191 0.87763 0.854095C1.29669 0.446277 1.8306 0.168549 2.41184 0.0560326C2.99309 -0.0564842 3.59557 0.00126355 4.14309 0.221973C4.69061 0.442683 5.15859 0.816441 5.48784 1.29598C5.81709 1.77553 5.99282 2.33932 5.99282 2.91606C5.99191 3.68917 5.67593 4.43037 5.11419 4.97704C4.55245 5.52372 3.79083 5.83123 2.99641 5.83212ZM2.99641 1.11995C2.63139 1.11995 2.27456 1.22529 1.97105 1.42265C1.66754 1.62001 1.43099 1.90052 1.2913 2.22872C1.15161 2.55691 1.11506 2.91805 1.18627 3.26647C1.25748 3.61488 1.43326 3.93491 1.69137 4.1861C1.94949 4.4373 2.27834 4.60836 2.63635 4.67766C2.99437 4.74697 3.36546 4.7114 3.7027 4.57545C4.03994 4.43951 4.32818 4.2093 4.53098 3.91393C4.73378 3.61856 4.84202 3.2713 4.84202 2.91606C4.84118 2.44003 4.64644 1.98374 4.30048 1.64721C3.95451 1.31069 3.48556 1.12054 2.99641 1.11995ZM14.0033 5.83212C13.4107 5.83206 12.8314 5.66099 12.3387 5.34054C11.8459 5.02009 11.4619 4.56464 11.2352 4.03179C11.0084 3.49895 10.9491 2.91264 11.0648 2.34699C11.1804 1.78135 11.4658 1.26179 11.8849 0.853997C12.304 0.446206 12.8379 0.168506 13.4191 0.0560121C14.0004 -0.056482 14.6028 0.00128202 15.1503 0.222C15.6978 0.442718 16.1658 0.816476 16.495 1.29601C16.8243 1.77555 17 2.33933 17 2.91606C16.9991 3.68922 16.6831 4.43046 16.1213 4.97714C15.5595 5.52383 14.7978 5.83131 14.0033 5.83212ZM14.0033 1.11995C13.6383 1.12 13.2815 1.22539 12.978 1.42278C12.6745 1.62018 12.438 1.90071 12.2984 2.22891C12.1587 2.55711 12.1222 2.91824 12.1935 3.26664C12.2647 3.61503 12.4405 3.93504 12.6986 4.1862C12.9568 4.43737 13.2856 4.6084 13.6436 4.67768C14.0016 4.74696 14.3727 4.71138 14.7099 4.57543C15.0472 4.43948 15.3354 4.20926 15.5382 3.9139C15.741 3.61854 15.8492 3.27129 15.8492 2.91606C15.8484 2.43998 15.6536 1.98365 15.3075 1.64712C14.9615 1.31058 14.4925 1.12047 14.0033 1.11995ZM2.99641 15C2.40378 15 1.82445 14.829 1.3317 14.5086C0.838938 14.1881 0.454881 13.7327 0.22809 13.1999C0.00129834 12.667 -0.0580407 12.0807 0.0575765 11.515C0.173194 10.9494 0.458574 10.4298 0.87763 10.022C1.29669 9.61416 1.8306 9.33643 2.41184 9.22391C2.99309 9.1114 3.59557 9.16914 4.14309 9.38985C4.69061 9.61056 5.15859 9.98432 5.48784 10.4639C5.81709 10.9434 5.99282 11.5072 5.99282 12.0839C5.99191 12.8571 5.67593 13.5982 5.11419 14.1449C4.55245 14.6916 3.79083 14.9991 2.99641 15ZM2.99641 10.2878C2.63139 10.2878 2.27456 10.3932 1.97105 10.5905C1.66754 10.7879 1.43099 11.0684 1.2913 11.3966C1.15161 11.7248 1.11506 12.0859 1.18627 12.4343C1.25748 12.7828 1.43326 13.1028 1.69137 13.354C1.94949 13.6052 2.27834 13.7762 2.63635 13.8455C2.99437 13.9148 3.36546 13.8793 3.7027 13.7433C4.03994 13.6074 4.32818 13.3772 4.53098 13.0818C4.73378 12.7864 4.84202 12.4392 4.84202 12.0839C4.84141 11.6078 4.64677 11.1513 4.30078 10.8146C3.95479 10.4778 3.48571 10.2884 2.99641 10.2878ZM14.0033 15C13.4107 14.9999 12.8314 14.8289 12.3387 14.5084C11.8459 14.188 11.4619 13.7325 11.2352 13.1997C11.0084 12.6668 10.9491 12.0805 11.0648 11.5149C11.1804 10.9492 11.4658 10.4297 11.8849 10.0219C12.304 9.61409 12.8379 9.33639 13.4191 9.22389C14.0004 9.1114 14.6028 9.16916 15.1503 9.38988C15.6978 9.6106 16.1658 9.98436 16.495 10.4639C16.8243 10.9434 17 11.5072 17 12.0839C16.9991 12.8571 16.6831 13.5983 16.1213 14.145C15.5595 14.6917 14.7978 14.9992 14.0033 15ZM14.0033 10.2878C13.6383 10.2879 13.2815 10.3933 12.978 10.5907C12.6745 10.7881 12.438 11.0686 12.2984 11.3968C12.1587 11.725 12.1222 12.0861 12.1935 12.4345C12.2647 12.7829 12.4405 13.1029 12.6986 13.3541C12.9568 13.6052 13.2856 13.7763 13.6436 13.8456C14.0016 13.9148 14.3727 13.8793 14.7099 13.7433C15.0472 13.6074 15.3354 13.3771 15.5382 13.0818C15.741 12.7864 15.8492 12.4392 15.8492 12.0839C15.8486 11.6077 15.6539 11.1512 15.3079 10.8145C14.9618 10.4777 14.4926 10.2883 14.0033 10.2878Z" fill="black"/>
<path d="M5.31068 2.69291C5.15807 2.69291 5.01172 2.63391 4.90381 2.5289C4.7959 2.42388 4.73528 2.28145 4.73528 2.13294C4.73528 1.98442 4.7959 1.84199 4.90381 1.73697C5.01172 1.63196 5.15807 1.57296 5.31068 1.57296H11.7008C11.8534 1.57296 11.9998 1.63196 12.1077 1.73697C12.2156 1.84199 12.2762 1.98442 12.2762 2.13294C12.2762 2.28145 12.2156 2.42388 12.1077 2.5289C11.9998 2.63391 11.8534 2.69291 11.7008 2.69291H5.31068ZM13.9906 10.2789C13.838 10.2789 13.6917 10.2199 13.5838 10.1149C13.4759 10.0098 13.4152 9.8674 13.4152 9.71889V5.27858C13.4152 5.13007 13.4759 4.98764 13.5838 4.88262C13.6917 4.77761 13.838 4.71861 13.9906 4.71861C14.1432 4.71861 14.2896 4.77761 14.3975 4.88262C14.5054 4.98764 14.566 5.13007 14.566 5.27858V9.71889C14.566 9.8674 14.5054 10.0098 14.3975 10.1149C14.2896 10.2199 14.1432 10.2789 13.9906 10.2789ZM5.30234 13.38C5.14973 13.38 5.00337 13.321 4.89546 13.216C4.78756 13.111 4.72693 12.9685 4.72693 12.82C4.72693 12.6715 4.78756 12.5291 4.89546 12.4241C5.00337 12.319 5.14973 12.26 5.30234 12.26H11.7008C11.8534 12.26 11.9998 12.319 12.1077 12.4241C12.2156 12.5291 12.2762 12.6715 12.2762 12.82C12.2762 12.9685 12.2156 13.111 12.1077 13.216C11.9998 13.321 11.8534 13.38 11.7008 13.38H5.30234ZM3.00907 10.2509C2.85646 10.2509 2.7101 10.1919 2.6022 10.0869C2.49429 9.98184 2.43366 9.83941 2.43366 9.69089V5.27858C2.43366 5.13007 2.49429 4.98764 2.6022 4.88262C2.7101 4.77761 2.85646 4.71861 3.00907 4.71861C3.16167 4.71861 3.30803 4.77761 3.41594 4.88262C3.52385 4.98764 3.58447 5.13007 3.58447 5.27858V9.69089C3.58447 9.83941 3.52385 9.98184 3.41594 10.0869C3.30803 10.1919 3.16167 10.2509 3.00907 10.2509Z" fill="black"/>
</svg>
