<svg width="18" height="18" viewBox="0 0 18 18" fill="none" xmlns="http://www.w3.org/2000/svg">
<path d="M11.4475 2.31413L11.0091 5.16337C10.9361 5.38254 10.9361 5.60174 11.0091 5.82092C11.0822 6.0401 11.1552 6.25931 11.3014 6.40543L12.6895 8.23191C11.7397 10.2045 10.1324 11.7387 8.15981 12.7615L6.40639 11.4465C6.26027 11.3004 6.04109 11.1543 5.82191 11.0812C5.60273 11.0082 5.3105 11.0082 5.09132 11.0812L2.24201 11.5196C1.87671 11.5926 1.58448 11.7387 1.3653 12.031C1.14612 12.3232 1 12.6155 1 12.9808V15.757C1 16.1223 1.14612 16.4145 1.3653 16.6337C1.58448 16.8529 1.94977 16.999 2.24201 16.999C6.18721 16.999 9.91324 15.4648 12.6895 12.6885C15.4658 9.91226 17 6.1862 17 2.241C17 1.8757 16.8539 1.5835 16.6347 1.36432C16.4155 1.14514 16.0502 0.999023 15.758 0.999023H12.9817C12.6164 0.999023 12.2511 1.14514 12.032 1.36432C11.7397 1.65656 11.5205 1.94883 11.4475 2.31413Z" stroke="black" stroke-width="1.5" stroke-miterlimit="10" stroke-linecap="round" stroke-linejoin="round"/>
</svg>
