<svg width="18" height="18" viewBox="0 0 18 18" fill="none" xmlns="http://www.w3.org/2000/svg">
<path d="M7.68995 11.3263L3.61721 16.4172C3.3263 16.7808 2.88993 16.999 2.45357 16.999C1.65357 16.999 0.999023 16.3445 0.999023 15.5445C0.999023 15.1081 1.2172 14.6718 1.58083 14.3809L6.67175 10.3082M12.9263 11.4718L6.5263 5.07173M12.3445 2.88991L10.4536 5.36266M15.0354 5.58088L13.3627 6.81721M9.87175 0.999023C10.2354 0.999023 10.6718 1.14446 10.8899 1.43537L16.5627 7.10813C16.8536 7.39904 16.999 7.7627 16.999 8.12633C16.999 8.63542 16.7081 9.14448 16.2718 9.36266L11.1808 12.4172C10.3081 12.9263 9.21719 12.7808 8.48992 12.0535L5.79902 9.36266C5.07175 8.63539 4.92629 7.54451 5.43538 6.67179L8.48992 1.58088C8.85355 1.28997 9.28994 0.999023 9.87175 0.999023Z" stroke="black" stroke-width="1.5" stroke-miterlimit="10" stroke-linecap="round" stroke-linejoin="round"/>
</svg>
