<svg width="22" height="22" viewBox="0 0 22 22" fill="none" xmlns="http://www.w3.org/2000/svg">
<path d="M5.54545 11.9091C7.55376 11.9091 9.18182 10.281 9.18182 8.27273C9.18182 6.26442 7.55376 4.63636 5.54545 4.63636C3.53715 4.63636 1.90909 6.26442 1.90909 8.27273C1.90909 10.281 3.53715 11.9091 5.54545 11.9091ZM5.54545 11.9091C3 11.9091 1 13.9091 1 16.4545M5.54545 11.9091C8.09091 11.9091 10.0909 13.9091 10.0909 16.4545M16.4545 16.4545C18.4629 16.4545 20.0909 14.8265 20.0909 12.8182C20.0909 10.8099 18.4629 9.18182 16.4545 9.18182C14.4462 9.18182 12.8182 10.8099 12.8182 12.8182C12.8182 14.8265 14.4462 16.4545 16.4545 16.4545ZM16.4545 16.4545C13.9091 16.4545 11.9091 18.4545 11.9091 21M16.4545 16.4545C19 16.4545 21 18.4545 21 21M16.4545 3.72727C16.4545 5.2335 15.2335 6.45455 13.7273 6.45455C12.221 6.45455 11 5.2335 11 3.72727C11 2.22104 12.221 1 13.7273 1C15.2335 1 16.4545 2.22104 16.4545 3.72727Z" stroke="white" stroke-miterlimit="10" stroke-linecap="round" stroke-linejoin="round"/>
</svg>
