<svg width="19" height="23" viewBox="0 0 19 23" fill="none" xmlns="http://www.w3.org/2000/svg">
<path d="M4.77778 18.1818H10.4444C12.5222 18.1818 14.2222 16.4636 14.2222 14.3636V4.81818M4.77778 18.1818C2.7 18.1818 1 16.4636 1 14.3636V4.81818C1 2.71818 2.7 1 4.77778 1H10.4444C12.5222 1 14.2222 2.71818 14.2222 4.81818M4.77778 18.1818C4.77778 20.2818 6.47778 22 8.55556 22H14.2222C16.3 22 18 20.2818 18 18.1818V8.63636C18 6.53636 16.3 4.81818 14.2222 4.81818M4.77778 5.77273H10.4444M4.77778 9.59091H10.4444M4.77778 13.4091H6.66667" stroke="white" stroke-miterlimit="10" stroke-linecap="round" stroke-linejoin="round"/>
</svg>
