<svg width="22" height="22" viewBox="0 0 22 22" fill="none" xmlns="http://www.w3.org/2000/svg">
<path d="M7.36364 2.81818V17.3636C7.36364 19.3636 9 21 11 21H14.9091C15.9091 21 16.8182 20.6364 17.4545 19.9091L19.9091 17.4545C20.6364 16.7273 21 15.8182 21 14.9091V10.0909C21 9.09091 20.1818 8.27273 19.1818 8.27273H11.9091V3.72727C11.9091 2.18182 10.7273 1 9.18182 1C8.18182 1 7.36364 1.81818 7.36364 2.81818Z" stroke="white" stroke-miterlimit="10" stroke-linecap="round" stroke-linejoin="round"/>
<path d="M2.81818 21H7.36364V8.27273H2.81818C1.81818 8.27273 1 9.09091 1 10.0909V19.1818C1 20.1818 1.81818 21 2.81818 21Z" stroke="white" stroke-miterlimit="10" stroke-linecap="round" stroke-linejoin="round"/>
</svg>
