<svg width="23" height="22" viewBox="0 0 23 22" fill="none" xmlns="http://www.w3.org/2000/svg">
<path d="M12.6433 1.65447L14.9299 6.30854C15.1204 6.69638 15.5015 6.89025 15.8826 6.98721L20.9322 7.76292C21.9802 7.95684 22.3613 9.21726 21.5991 9.89597L17.9787 13.3866C17.6928 13.6775 17.5023 14.0652 17.5976 14.55L18.455 19.4949C18.6456 20.5615 17.5976 21.3372 16.7401 20.8524L12.0716 18.4284C11.6905 18.2345 11.3095 18.2345 10.9284 18.4284L6.25989 20.8524C5.40241 21.3372 4.3544 20.5615 4.54495 19.4949L5.40242 14.55C5.49769 14.1622 5.30715 13.6775 5.02133 13.3866L1.40089 9.89597C0.638689 9.21726 1.01979 7.85988 2.06781 7.76292L7.11737 6.98721C7.49847 6.89025 7.87956 6.69638 8.07011 6.30854L10.3567 1.65447C10.9283 0.781843 12.2622 0.781843 12.6433 1.65447Z" stroke="white" stroke-linecap="round" stroke-linejoin="round"/>
</svg>
