<svg width="22" height="22" viewBox="0 0 22 22" fill="none" xmlns="http://www.w3.org/2000/svg">
<path d="M14.0594 2.64388L13.5114 6.20543C13.4201 6.4794 13.4201 6.7534 13.5114 7.02737C13.6027 7.30134 13.6941 7.57536 13.8767 7.75801L15.6119 10.0411C14.4247 12.5069 12.4155 14.4246 9.94976 15.7032L7.75799 14.0594C7.57534 13.8767 7.30136 13.6941 7.02739 13.6028C6.75342 13.5114 6.38812 13.5114 6.11415 13.6028L2.55251 14.1507C2.09589 14.242 1.73059 14.4246 1.45662 14.7899C1.18265 15.1552 1 15.5206 1 15.9772V19.4474C1 19.904 1.18265 20.2694 1.45662 20.5434C1.73059 20.8174 2.18721 21 2.55251 21C7.48402 21 12.1416 19.0822 15.6119 15.6119C19.0822 12.1415 21 7.48397 21 2.55247C21 2.09584 20.8174 1.73059 20.5434 1.45662C20.2694 1.18265 19.8128 1 19.4475 1H15.9772C15.5205 1 15.0639 1.18265 14.79 1.45662C14.4247 1.82192 14.1507 2.18726 14.0594 2.64388Z" stroke="white" stroke-miterlimit="10" stroke-linecap="round" stroke-linejoin="round"/>
</svg>
