<svg width="22" height="22" viewBox="0 0 22 22" fill="none" xmlns="http://www.w3.org/2000/svg">
<path d="M1 9.18182L7.90909 2.27272C8.72727 1.45454 9.81818 1 11 1C12.1818 1 13.2727 1.45454 14.0909 2.27272L21 9.18182M3.72727 1V17.3636C3.72727 19.3636 5.36364 21 7.36364 21H14.6364C16.6364 21 18.2727 19.3636 18.2727 17.3636V6.45455M13.7273 11.9091C13.7273 13.4153 12.5062 14.6364 11 14.6364C9.49377 14.6364 8.27273 13.4153 8.27273 11.9091C8.27273 10.4029 9.49377 9.18182 11 9.18182C12.5062 9.18182 13.7273 10.4029 13.7273 11.9091Z" stroke="white" stroke-miterlimit="10" stroke-linecap="round" stroke-linejoin="round"/>
</svg>
