<svg width="18" height="18" viewBox="0 0 18 18" fill="none" xmlns="http://www.w3.org/2000/svg">
<path d="M11.9091 0.527344V3.43643M13.3636 1.98189H10.4545M7.18182 3.80007L4.27273 6.70916M1 2.70916C1 2.2728 1.21818 1.76371 1.50909 1.4728L1.94545 1.03643C2.23636 0.745526 2.74545 0.527344 3.18182 0.527344C3.61818 0.527344 4.12727 0.745526 4.41818 1.03643L16.4909 13.1092C16.8545 13.4728 17 13.9092 17 14.3455C17 14.7819 16.7818 15.291 16.4909 15.5819L16.0545 16.0183C15.7636 16.3092 15.2545 16.5273 14.8182 16.5273C14.3818 16.5273 13.8727 16.3092 13.5818 16.0183L1.50909 3.94553C1.21818 3.65462 1 3.14553 1 2.70916ZM3.90909 10.7092C4.05455 10.7092 4.2 10.7819 4.27273 11.0001L4.56364 12.2364C4.63636 12.6001 4.92727 12.891 5.36364 12.9637L6.6 13.2546C6.74545 13.3273 6.81818 13.4728 6.81818 13.6183C6.81818 13.7637 6.74546 13.9092 6.52727 13.9819L5.36364 14.2728C4.92727 14.3455 4.63636 14.6364 4.56364 15.0001L4.27273 16.2364C4.2 16.4546 4.05455 16.5273 3.90909 16.5273C3.76364 16.5273 3.61818 16.4546 3.54545 16.2364L3.25455 15.0001C3.18182 14.6364 2.89091 14.3455 2.52727 14.2728L1.29091 13.9819C1.14545 13.9092 1 13.7637 1 13.6183C1 13.4728 1.07273 13.3273 1.29091 13.2546L2.52727 12.9637C2.89091 12.891 3.18182 12.6001 3.25455 12.2364L3.54545 11.0001C3.61818 10.7819 3.76364 10.7092 3.90909 10.7092Z" stroke="#1E1E1E" stroke-miterlimit="10" stroke-linecap="round" stroke-linejoin="round"/>
</svg>
