<svg width="23" height="19" viewBox="0 0 23 19" fill="none" xmlns="http://www.w3.org/2000/svg">
<path fill-rule="evenodd" clip-rule="evenodd" d="M2.52334 7.7393C8.4396 5.18288 12.372 3.53696 14.3204 2.6965C19.9533 0.420233 21.1224 0 21.8663 0C22.0435 0 22.3977 0.0350194 22.6457 0.245136C22.8583 0.420233 22.8937 0.63035 22.9291 0.770428C22.9646 0.945525 23 1.29572 22.9646 1.57588C22.6457 4.72763 21.3349 12.4319 20.6618 15.9689C20.3784 17.4747 19.8116 17.965 19.2802 18.035C18.1111 18.1401 17.2254 17.2646 16.0563 16.5292C14.285 15.3735 13.2576 14.6381 11.5217 13.5175C9.53783 12.2218 10.8132 11.4864 11.9468 10.3307C12.2303 10.0156 17.438 5.35798 17.5088 4.93774C17.5088 4.8677 17.5443 4.69261 17.4026 4.58755C17.2609 4.48249 17.1192 4.51751 16.9774 4.55253C16.8003 4.58755 13.9662 6.44358 8.4396 10.1206C7.62479 10.6809 6.91625 10.9261 6.24314 10.9261C5.53461 10.9261 4.11754 10.5058 3.09017 10.1907C1.8148 9.77043 0.822855 9.56031 0.893709 8.85992C1.03542 8.50973 1.56682 8.12451 2.52334 7.7393Z" fill="#1E1E1E"/>
</svg>
