<svg width="1397" height="1220" viewBox="0 0 1397 1220" fill="none" xmlns="http://www.w3.org/2000/svg">
<path d="M15.4451 896.101C-25.1297 877.206 -203.979 823.081 -247.223 833.543C-301.572 846.674 -349.407 923.003 -377.917 990.258C-400.553 1046.62 -403.329 1106.51 -306.911 1102.99C-228.751 1101.18 -97.844 1051.11 -2.27979 1005.52C39.7898 985.454 60.2907 965.918 59.1162 940.938C58.4756 925.565 45.8761 910.193 15.4451 896.101Z" stroke="#ECECEC" stroke-opacity="0.9" stroke-width="2" stroke-miterlimit="79.8403"/>
<path d="M58.2621 906.136C61.9992 927.914 46.1964 947.236 11.3876 969.441C-67.5197 1019.83 -176.965 1078.01 -245.301 1088.04C-329.44 1101.6 -333.605 1048.76 -319.831 996.877C-302.106 934.746 -268.471 862.58 -222.131 845.179C-185.4 831.301 -22.5671 859.378 15.1248 871.548C43.3135 880.622 56.0198 892.685 58.2621 906.136Z" stroke="#ECECEC" stroke-opacity="0.9" stroke-width="2" stroke-miterlimit="79.8403"/>
<path d="M57.4078 871.334C63.7076 889.909 52.4963 909.125 25.0549 933.358C-37.1953 988.55 -125.178 1054.74 -183.692 1072.99C-255.658 1096.59 -266.55 1050.79 -261.745 1003.28C-254.804 946.382 -235.264 878.38 -197.145 856.602C-166.821 839.308 -20.1112 841.443 14.6976 846.887C40.7509 851.051 53.5639 859.911 57.4078 871.334Z" stroke="#ECECEC" stroke-opacity="0.9" stroke-width="2" stroke-miterlimit="79.8403"/>
<path d="M56.5537 836.532C65.4161 851.905 58.796 870.907 38.7222 897.275C-6.87105 957.271 -73.3922 1031.47 -122.189 1057.94C-181.983 1091.57 -199.708 1052.82 -203.765 1009.79C-207.609 958.018 -202.271 894.179 -172.16 868.238C-148.242 847.635 -17.5486 823.615 14.2705 822.441C38.1883 821.48 51.1082 827.031 56.5537 836.532Z" stroke="#ECECEC" stroke-opacity="0.9" stroke-width="2" stroke-miterlimit="79.8403"/>
<path d="M55.6995 801.73C67.1245 814.007 65.0958 832.796 52.3895 861.299C23.4533 925.992 -21.4993 1008.3 -60.5792 1043.1C-108.094 1086.66 -132.76 1054.95 -145.679 1016.41C-160.308 969.761 -169.063 910.193 -147.068 879.874C-129.556 855.855 -14.986 805.894 13.9502 797.887C35.6257 791.909 48.5455 794.258 55.6995 801.73Z" stroke="#ECECEC" stroke-opacity="0.9" stroke-width="2" stroke-miterlimit="79.8403"/>
<path d="M54.7385 766.929C68.7261 776.003 71.3955 794.578 65.95 825.216C53.6707 894.713 30.18 985.027 0.923462 1028.05C-34.4193 1081.64 -65.9181 1056.98 -87.7003 1022.92C-113.113 981.504 -135.963 925.992 -122.082 891.404C-111.084 863.968 -12.4234 787.959 13.5231 773.227C32.9562 762.231 46.0897 761.377 54.7385 766.929Z" stroke="#ECECEC" stroke-opacity="0.9" stroke-width="2" stroke-miterlimit="79.8403"/>
<path d="M53.8844 732.234C70.4346 738.105 77.6953 756.573 79.6173 789.24C83.9951 863.434 81.9663 961.862 62.4264 1013.1C39.2561 1076.73 1.03032 1059.11 -29.7211 1029.44C-65.918 993.141 -102.969 941.792 -97.0964 903.04C-92.5051 872.188 -9.9676 770.238 13.0959 748.78C30.3936 732.661 43.6339 728.604 53.8844 732.234Z" stroke="#ECECEC" stroke-opacity="0.9" stroke-width="2" stroke-miterlimit="79.8403"/>
<path d="M53.0302 697.432C72.143 700.101 83.9949 718.356 93.2844 753.157C114.426 832.155 133.752 938.589 124.036 998.158C113.038 1071.82 67.9788 1061.25 28.365 1036.06C-18.6163 1004.88 -69.7619 957.805 -72.0042 914.676C-73.8193 880.408 -7.29807 752.41 12.7758 724.334C27.8311 703.09 41.1781 695.724 53.0302 697.432Z" stroke="#ECECEC" stroke-opacity="0.9" stroke-width="2" stroke-miterlimit="79.8403"/>
<path d="M52.1758 662.63C73.8512 662.096 90.4016 680.244 106.952 717.181C144.75 800.876 185.539 915.424 185.645 983.212C186.927 1066.8 134.927 1063.28 86.4509 1042.57C28.6853 1016.52 -36.6614 973.604 -47.0187 926.206C-55.2404 888.628 -4.84225 734.582 12.3486 699.674C25.2685 673.519 38.722 662.95 52.1758 662.63Z" stroke="#ECECEC" stroke-opacity="0.9" stroke-width="2" stroke-miterlimit="79.8403"/>
<path d="M51.215 627.828C75.453 624.092 96.5946 642.026 120.512 681.098C174.968 769.598 237.325 892.151 247.042 968.16C260.495 1061.78 201.662 1065.31 144.323 1049.08C75.7733 1028.26 -3.66782 989.511 -22.14 937.735C-36.7683 896.742 -2.38647 716.647 11.8147 675.12C22.7058 643.948 36.2664 630.07 51.215 627.828Z" stroke="#ECECEC" stroke-opacity="0.9" stroke-width="2" stroke-miterlimit="79.8403"/>
<path d="M50.3607 593.026C77.2682 586.087 102.894 603.915 134.286 645.015C205.399 738.318 289.218 868.986 308.758 953.214C334.384 1056.87 268.824 1067.44 202.516 1055.59C123.182 1039.9 29.6462 1005.31 3.05908 949.371C-17.9757 904.962 0.282852 698.926 11.6011 650.567C20.1431 614.27 33.8105 597.296 50.3607 593.026Z" stroke="#ECECEC" stroke-opacity="0.9" stroke-width="2" stroke-miterlimit="79.8403"/>
<path d="M49.5065 558.224C78.9766 548.083 109.301 565.804 147.954 608.933C235.723 706.933 341.004 845.713 370.367 938.162C408.166 1051.86 335.772 1069.36 260.602 1062.1C170.483 1051.53 62.7467 1021.11 28.1514 960.901C0.603243 913.075 2.95238 680.992 11.2809 626.013C17.4739 584.699 31.3546 564.416 49.5065 558.224Z" stroke="#ECECEC" stroke-opacity="0.9" stroke-width="2" stroke-miterlimit="79.8403"/>
<path d="M48.6523 523.423C80.685 510.078 115.601 527.586 161.621 572.85C266.047 675.654 392.79 822.441 431.87 923.217C481.841 1046.84 402.614 1071.5 318.581 1068.62C217.678 1063.28 95.8471 1037.02 53.1368 972.43C19.1822 921.188 5.4082 663.057 10.8538 601.353C14.9112 555.129 28.8988 531.643 48.6523 523.423Z" stroke="#ECECEC" stroke-opacity="0.9" stroke-width="2" stroke-miterlimit="79.8403"/>
<path d="M47.7981 488.621C82.3934 472.074 121.9 489.475 175.288 536.767C296.372 644.375 444.576 799.168 493.48 908.164C555.73 1041.82 469.562 1073.53 376.667 1075.13C264.98 1074.91 129.054 1052.82 78.1224 984.066C37.7612 929.515 7.97067 645.336 10.4265 576.906C12.3485 525.558 26.443 498.762 47.7981 488.621Z" stroke="#ECECEC" stroke-opacity="0.9" stroke-width="2" stroke-miterlimit="79.8403"/>
<path d="M46.8369 453.819C83.9949 434.069 128.2 451.257 188.849 500.791C326.589 613.096 496.363 776.003 554.982 893.219C629.405 1036.91 536.51 1075.66 434.646 1081.64C312.175 1086.55 162.048 1068.62 103.108 995.596C56.34 937.628 10.4265 627.401 9.99939 552.246C9.78584 495.88 23.9869 465.989 46.8369 453.819Z" stroke="#ECECEC" stroke-opacity="0.9" stroke-width="2" stroke-miterlimit="79.8403"/>
<path d="M45.9829 419.017C85.7035 396.065 134.5 413.146 202.516 464.708C356.914 581.817 548.149 752.73 616.485 878.273C703.08 1032 603.352 1077.8 492.732 1088.26C359.476 1098.4 195.255 1084.63 128.2 1007.23C75.0259 945.848 13.096 609.68 9.6792 527.8C7.22336 466.309 21.5313 433.109 45.9829 419.017Z" stroke="#ECECEC" stroke-opacity="0.9" stroke-width="2" stroke-miterlimit="79.8403"/>
<path d="M45.1287 384.215C87.4118 358.167 140.8 374.928 216.183 428.625C387.238 550.538 599.935 729.458 678.095 863.221C776.862 1026.87 670.3 1079.72 550.818 1094.66C406.778 1109.93 228.463 1100.32 153.292 1018.65C93.7117 953.855 15.6585 591.639 9.35876 503.139C4.55386 436.738 19.0754 400.335 45.1287 384.215Z" stroke="#ECECEC" stroke-opacity="0.9" stroke-width="2" stroke-miterlimit="79.8403"/>
<path d="M44.2745 349.414C89.1203 320.163 147.099 336.817 229.851 392.542C417.562 519.259 651.721 706.292 739.598 848.275C850.644 1021.96 737.142 1081.85 608.797 1101.28C453.973 1121.67 261.456 1116.33 178.278 1030.4C112.291 962.182 18.2211 574.024 8.93164 478.693C1.99122 407.168 16.6196 367.455 44.2745 349.414Z" stroke="#ECECEC" stroke-opacity="0.9" stroke-width="2" stroke-miterlimit="79.8403"/>
<path d="M43.4203 314.612C90.8287 282.158 153.506 298.599 243.518 356.459C447.887 487.767 703.508 682.913 801.207 833.223C924.426 1016.95 804.197 1083.88 666.883 1107.69C501.274 1133.31 294.663 1132.03 203.37 1041.82C130.87 970.188 20.8907 555.983 8.61145 454.033C-0.571259 377.597 14.1638 334.681 43.4203 314.612Z" stroke="#ECECEC" stroke-opacity="0.9" stroke-width="2" stroke-miterlimit="79.8403"/>
<path d="M42.4592 279.917C92.4302 244.261 159.699 260.594 257.078 320.59C478.104 456.701 755.294 659.854 862.71 818.384C998.102 1012.04 871.039 1086.12 724.863 1114.41C548.469 1145.16 327.657 1148.04 228.249 1053.56C149.342 978.622 23.2397 538.368 8.18433 429.586C-3.1339 347.919 11.7078 301.801 42.4592 279.917Z" stroke="#ECECEC" stroke-opacity="0.9" stroke-width="2" stroke-miterlimit="79.8403"/>
<path d="M41.6051 245.115C94.1387 206.256 165.999 222.483 270.746 284.507C508.428 425.422 807.08 636.582 924.32 803.332C1071.88 1007.02 937.987 1088.04 782.949 1120.82C595.771 1156.69 360.864 1163.84 253.341 1064.99C168.027 986.628 25.909 520.327 7.86389 404.926C-5.69662 318.348 9.25207 269.028 41.6051 245.115Z" stroke="#ECECEC" stroke-opacity="0.9" stroke-width="2" stroke-miterlimit="79.8403"/>
<path d="M40.7509 210.313C95.8471 168.252 172.405 184.265 284.413 248.424C538.753 394.037 858.866 613.31 985.929 788.386C1145.67 1002 1004.94 1090.07 840.928 1127.33C642.966 1168.43 393.965 1179.64 278.327 1076.62C186.606 994.849 28.3649 502.606 7.43689 380.372C-8.25913 288.777 6.79619 236.147 40.7509 210.313Z" stroke="#ECECEC" stroke-opacity="0.9" stroke-width="2" stroke-miterlimit="79.8403"/>
<path d="M39.8966 175.511C97.5555 130.247 178.705 146.154 298.08 212.341C569.077 362.758 910.652 590.144 1047.43 773.334C1219.45 997.09 1071.88 1092.21 899.014 1133.84C690.267 1180.07 427.065 1195.55 303.419 1088.15C205.292 1002.96 31.0342 484.671 7.11646 355.819C-10.9286 259.206 4.34031 203.374 39.8966 175.511Z" stroke="#ECECEC" stroke-opacity="0.9" stroke-width="2" stroke-miterlimit="79.8403"/>
<path d="M38.9358 140.709C99.1573 92.243 184.898 107.936 311.641 176.258C599.401 331.479 962.438 566.871 1109.04 758.388C1293.23 992.073 1138.83 1094.24 956.993 1140.35C737.462 1191.7 460.166 1211.35 328.405 1099.68C223.871 1011.18 33.4901 466.736 6.68945 331.159C-13.4911 229.635 1.88463 170.6 38.9358 140.709Z" stroke="#ECECEC" stroke-opacity="0.9" stroke-width="2" stroke-miterlimit="79.8403"/>
<path d="M38.0815 105.908C100.866 54.2386 191.305 69.8247 325.308 140.282C629.725 300.2 1014.22 543.706 1170.54 743.443C1366.9 987.055 1205.67 1096.37 1015.08 1146.97C784.764 1203.55 493.373 1227.25 353.497 1111.42C242.557 1019.51 36.1596 449.122 6.36914 306.819C-16.0538 199.958 -0.571255 137.72 38.0815 105.908Z" stroke="#ECECEC" stroke-opacity="0.9" stroke-width="2" stroke-miterlimit="79.8403"/>
<path d="M37.2271 71.1057C102.574 16.2341 197.604 31.6067 338.975 104.199C660.05 268.921 1066.01 520.434 1232.15 728.391C1440.79 982.145 1272.73 1098.4 1073.16 1153.49C832.065 1215.19 526.473 1243.16 378.482 1122.95C261.029 1027.62 38.6153 431.187 5.94189 282.159C-18.6165 170.387 -3.02738 104.947 37.2271 71.1057Z" stroke="#ECECEC" stroke-opacity="0.9" stroke-width="2" stroke-miterlimit="79.8403"/>
<path d="M5.51489 257.605C41.178 413.359 279.608 1035.74 403.468 1134.48C559.574 1258.96 879.153 1226.83 1131.14 1160C1339.57 1100.54 1514.47 977.127 1293.66 713.445C1117.8 497.268 690.374 237.642 352.643 68.2234C203.904 -6.39773 104.283 -21.6636 36.3732 36.4106C-5.4829 72.0665 -21.179 140.816 5.51489 257.605Z" stroke="#ECECEC" stroke-opacity="0.9" stroke-width="2" stroke-miterlimit="79.8403"/>
</svg>
