<svg width="582" height="530" viewBox="0 0 582 530" fill="none" xmlns="http://www.w3.org/2000/svg">
<path d="M629.118 414.783C648.612 408.66 732.793 394.87 751.737 402.194C775.547 411.391 792.625 448.802 801.5 480.949C808.369 507.816 806.04 535.089 762.616 527.721C727.352 522.221 671.107 491.722 630.588 465.369C612.75 453.767 604.642 443.697 606.67 432.461C607.88 425.542 614.502 419.339 629.118 414.783Z" stroke="#ECECEC" stroke-opacity="0.5" stroke-width="2" stroke-miterlimit="79.8403"/>
<path d="M609.14 416.761C606.145 426.394 612.139 436.086 626.563 448.22C659.256 475.75 705.303 508.635 735.629 517.268C772.895 528.442 777.943 504.774 774.816 480.467C770.515 451.285 759.614 416.609 739.684 405.959C723.892 397.478 648.52 400.437 630.733 403.689C617.433 406.108 610.96 410.807 609.14 416.761Z" stroke="#ECECEC" stroke-opacity="0.5" stroke-width="2" stroke-miterlimit="79.8403"/>
<path d="M611.61 401.061C607.647 409.091 611.57 418.459 622.538 431.07C647.405 459.777 683.26 495.002 708.648 506.767C739.804 521.754 747.476 501.678 748.145 479.889C748.411 453.72 743.64 421.772 727.693 409.633C715.005 399.99 648.482 392.173 632.403 392.553C620.363 392.877 614.034 396.121 611.61 401.061Z" stroke="#ECECEC" stroke-opacity="0.5" stroke-width="2" stroke-miterlimit="79.8403"/>
<path d="M614.081 385.36C609.149 391.787 611.008 400.784 618.513 413.92C635.555 443.805 661.217 481.368 681.715 496.272C706.762 515.072 717.104 498.594 721.516 479.365C726.356 456.161 727.763 426.948 715.689 413.404C706.098 402.646 648.39 383.95 634.06 381.514C623.293 379.647 617.114 381.386 614.081 385.36Z" stroke="#ECECEC" stroke-opacity="0.5" stroke-width="2" stroke-miterlimit="79.8403"/>
<path d="M616.551 369.66C610.645 374.532 610.439 383.158 614.482 396.819C623.704 427.832 639.12 467.776 654.722 485.867C673.617 508.426 686.678 495.552 694.833 478.883C704.246 458.644 711.775 432.207 703.636 417.168C697.15 405.248 648.291 375.776 635.675 370.42C626.224 366.416 620.236 366.706 616.551 369.66Z" stroke="#ECECEC" stroke-opacity="0.5" stroke-width="2" stroke-miterlimit="79.8403"/>
<path d="M619.07 353.966C612.196 357.235 609.876 365.483 610.506 379.676C611.902 411.866 617.125 454.149 627.789 475.372C640.575 501.744 656.307 492.468 668.204 478.359C682.185 461.133 695.849 437.376 691.639 420.89C688.304 407.814 648.205 367.505 637.345 359.284C629.209 353.144 623.316 351.971 619.07 353.966Z" stroke="#ECECEC" stroke-opacity="0.5" stroke-width="2" stroke-miterlimit="79.8403"/>
<path d="M621.534 338.314C613.692 339.98 609.3 347.905 606.475 362.575C600.051 395.893 595.076 440.564 600.85 464.926C607.527 495.11 625.881 489.426 641.575 477.835C660.129 463.574 679.972 442.552 679.634 424.661C679.404 410.422 648.155 359.338 639.002 348.245C632.139 339.913 626.39 337.285 621.534 338.314Z" stroke="#ECECEC" stroke-opacity="0.5" stroke-width="2" stroke-miterlimit="79.8403"/>
<path d="M624.004 322.613C615.195 322.677 608.738 330.23 602.45 345.425C588.152 379.914 573.033 426.93 573.863 454.473C574.43 488.47 595.455 486.385 614.891 477.353C638.019 466.057 663.985 447.811 667.582 428.425C670.455 413.024 648.014 351.109 640.611 337.199C635.069 326.683 629.47 322.55 624.004 322.613Z" stroke="#ECECEC" stroke-opacity="0.5" stroke-width="2" stroke-miterlimit="79.8403"/>
<path d="M626.475 306.913C616.697 305.374 608.12 312.597 598.419 328.324C576.301 363.942 550.983 413.344 546.876 444.02C541.291 481.776 565.035 483.294 588.214 476.823C615.916 468.492 648.059 452.981 655.584 432.148C661.555 415.632 647.97 342.893 642.281 326.064C638 313.452 632.544 307.863 626.475 306.913Z" stroke="#ECECEC" stroke-opacity="0.5" stroke-width="2" stroke-miterlimit="79.8403"/>
<path d="M628.993 291.219C618.248 288.077 607.606 294.928 594.442 311.181C564.499 347.976 528.941 399.711 519.992 433.531C508.298 475.1 534.712 480.217 561.633 476.306C593.903 470.988 632.175 458.205 643.635 435.877C652.709 418.199 647.933 334.628 643.993 314.983C640.93 300.222 635.624 293.129 628.993 291.219Z" stroke="#ECECEC" stroke-opacity="0.5" stroke-width="2" stroke-miterlimit="79.8403"/>
<path d="M631.464 275.519C619.702 270.767 607.037 277.302 590.369 294.025C552.6 331.997 506.843 386.119 492.957 423.072C475.153 468.454 504.19 477.162 534.907 475.769C571.751 473.416 616.152 463.361 631.534 439.635C643.712 420.794 647.786 326.448 645.559 303.882C643.867 286.943 638.698 278.442 631.464 275.519Z" stroke="#ECECEC" stroke-opacity="0.5" stroke-width="2" stroke-miterlimit="79.8403"/>
<path d="M633.934 259.818C621.204 253.464 606.42 259.669 586.345 276.875C540.756 315.976 484.8 372.485 465.976 412.57C442.062 461.766 473.776 474.024 508.23 475.239C549.647 475.851 600.226 468.53 619.488 443.351C634.819 423.354 647.652 318.171 647.175 292.788C646.846 273.719 641.778 263.707 633.934 259.818Z" stroke="#ECECEC" stroke-opacity="0.5" stroke-width="2" stroke-miterlimit="79.8403"/>
<path d="M636.404 244.118C622.707 236.16 605.857 241.994 582.32 259.725C528.905 300.003 462.757 358.852 439.037 402.124C409.02 455.084 443.399 470.988 481.601 474.715C527.585 478.34 584.294 473.748 607.49 447.073C625.925 425.913 647.614 309.906 648.844 281.653C649.776 260.488 644.852 249.021 636.404 244.118Z" stroke="#ECECEC" stroke-opacity="0.5" stroke-width="2" stroke-miterlimit="79.8403"/>
<path d="M638.875 228.417C624.209 218.857 605.288 224.368 578.295 242.576C517.054 284.031 440.714 345.218 412.056 391.622C375.881 448.389 412.979 467.898 454.924 474.185C505.482 480.775 568.319 478.911 595.486 450.844C617.018 428.57 647.516 301.732 650.501 270.614C652.706 247.258 647.932 234.286 638.875 228.417Z" stroke="#ECECEC" stroke-opacity="0.5" stroke-width="2" stroke-miterlimit="79.8403"/>
<path d="M641.394 212.724C625.76 201.56 604.725 206.693 574.312 225.481C505.252 268.064 418.665 331.633 385.117 381.176C342.833 441.755 382.553 464.856 428.295 473.661C483.427 483.216 552.442 484.087 583.488 454.566C608.124 431.13 647.478 293.468 652.171 259.478C655.643 233.979 651.006 219.6 641.394 212.724Z" stroke="#ECECEC" stroke-opacity="0.5" stroke-width="2" stroke-miterlimit="79.8403"/>
<path d="M643.864 197.023C627.262 184.257 604.156 189.066 570.287 208.331C493.401 252.092 396.622 317.999 358.179 370.729C309.785 435.122 352.176 461.821 401.611 473.179C461.31 485.747 536.455 489.346 571.435 458.33C599.175 433.731 647.331 285.287 653.78 248.432C658.573 220.748 654.086 204.865 643.864 197.023Z" stroke="#ECECEC" stroke-opacity="0.5" stroke-width="2" stroke-miterlimit="79.8403"/>
<path d="M646.334 181.323C628.758 167.002 603.593 171.391 566.263 191.182C481.55 236.119 374.579 304.365 331.198 360.228C276.701 428.385 321.762 458.682 374.94 472.6C439.213 488.133 520.487 494.461 559.396 461.998C590.24 436.237 647.252 276.968 655.402 237.29C661.552 207.524 657.16 190.179 646.334 181.323Z" stroke="#ECECEC" stroke-opacity="0.5" stroke-width="2" stroke-miterlimit="79.8403"/>
<path d="M648.805 165.622C630.261 149.698 603.024 153.765 562.238 174.032C469.7 220.147 352.53 290.78 304.259 349.781C243.604 421.745 291.385 455.647 348.305 472.125C417.151 490.623 504.596 499.733 547.385 465.817C581.333 438.893 647.147 268.842 657.059 226.251C664.482 194.294 660.24 175.444 648.805 165.622Z" stroke="#ECECEC" stroke-opacity="0.5" stroke-width="2" stroke-miterlimit="79.8403"/>
<path d="M651.275 149.922C631.763 132.395 602.413 136.083 558.213 156.883C457.862 204.078 330.493 277.098 277.278 339.28C210.513 415.057 260.917 452.55 321.634 471.546C395.048 493.057 488.628 504.847 535.345 469.485C572.445 441.404 647.019 260.517 658.68 215.109C667.413 181.063 663.314 160.757 651.275 149.922Z" stroke="#ECECEC" stroke-opacity="0.5" stroke-width="2" stroke-miterlimit="79.8403"/>
<path d="M653.787 134.276C633.307 115.146 601.886 118.512 554.224 139.836C446.047 188.208 308.438 263.561 250.333 328.881C177.465 408.423 230.533 449.563 294.992 471.119C372.98 495.595 472.738 510.12 523.383 473.31C563.581 444.116 647.01 252.404 660.337 204.07C670.349 167.784 666.394 146.022 653.787 134.276Z" stroke="#ECECEC" stroke-opacity="0.5" stroke-width="2" stroke-miterlimit="79.8403"/>
<path d="M656.258 118.576C634.81 97.8431 601.317 100.885 550.199 122.686C434.196 172.235 286.395 249.927 223.352 318.38C144.375 401.735 200.119 446.425 268.321 470.54C350.883 497.981 456.764 515.283 511.343 476.978C554.645 446.621 646.882 244.078 661.959 192.927C673.28 154.554 669.468 131.336 656.258 118.576Z" stroke="#ECECEC" stroke-opacity="0.5" stroke-width="2" stroke-miterlimit="79.8403"/>
<path d="M658.728 102.876C636.312 80.5398 600.706 83.2039 546.174 105.537C422.352 156.215 264.352 236.294 196.365 307.927C111.284 395.047 169.7 443.334 241.692 470.016C328.821 500.471 440.838 520.452 499.339 480.749C545.745 449.229 646.832 235.911 663.622 181.84C676.21 141.323 672.548 116.601 658.728 102.876Z" stroke="#ECECEC" stroke-opacity="0.5" stroke-width="2" stroke-miterlimit="79.8403"/>
<path d="M661.199 87.1752C637.815 63.2365 600.137 65.5773 542.15 88.3872C410.501 140.242 242.302 222.708 169.433 297.432C78.1875 388.407 139.274 440.293 215.015 469.486C306.718 502.905 424.905 525.669 487.293 484.465C536.802 451.782 646.698 227.633 665.237 170.746C679.189 128.099 675.622 101.915 661.199 87.1752Z" stroke="#ECECEC" stroke-opacity="0.5" stroke-width="2" stroke-miterlimit="79.8403"/>
<path d="M663.717 71.4812C639.365 45.9395 599.623 47.9089 538.173 71.244C398.65 124.269 220.26 209.074 142.446 286.979C45.0972 381.719 108.854 437.202 188.386 468.962C284.662 505.346 408.979 530.839 475.295 488.187C527.902 454.39 646.66 219.369 666.907 159.61C682.119 114.869 678.695 87.2284 663.717 71.4812Z" stroke="#ECECEC" stroke-opacity="0.5" stroke-width="2" stroke-miterlimit="79.8403"/>
<path d="M666.188 55.7808C640.868 28.6362 599.006 30.276 534.142 54.1427C386.8 108.297 198.21 195.489 115.507 276.532C12.0551 375.037 78.4765 434.167 161.702 468.48C262.546 507.878 392.999 536.05 463.237 492C518.947 457.04 646.507 211.237 668.51 148.613C685.056 101.59 681.776 72.4936 666.188 55.7808Z" stroke="#ECECEC" stroke-opacity="0.5" stroke-width="2" stroke-miterlimit="79.8403"/>
<path d="M668.658 40.0804C642.37 11.3329 598.443 12.6011 530.117 36.9931C374.949 92.3243 176.167 181.855 88.5259 266.031C-21.09 368.39 48.0086 431.07 135.025 467.95C240.442 510.312 377.066 541.267 451.239 495.722C510.102 459.607 646.47 202.972 670.179 137.477C687.986 88.3591 684.849 57.8071 668.658 40.0804Z" stroke="#ECECEC" stroke-opacity="0.5" stroke-width="2" stroke-miterlimit="79.8403"/>
<path d="M671.843 126.39C646.377 194.75 501.208 462.166 439.241 499.445C361.14 546.437 218.435 512.76 108.396 467.426C17.6309 428.035 -54.132 361.709 61.5871 255.584C154.118 168.27 363.098 76.3517 526.086 19.8918C597.867 -4.9771 643.866 -5.92214 671.122 24.4284C687.929 43.0724 690.916 75.1286 671.843 126.39Z" stroke="#ECECEC" stroke-opacity="0.5" stroke-width="2" stroke-miterlimit="79.8403"/>
</svg>
