<svg width="338" height="386" viewBox="0 0 338 386" fill="none" xmlns="http://www.w3.org/2000/svg">
<path d="M-279.018 28.4481C-273.756 43.9198 -242.911 104.997 -229.126 114.022C-211.724 125.447 -178.956 119.827 -153.556 111.196C-132.554 103.639 -115.712 89.8983 -141.168 64.8968C-161.516 44.3794 -208.333 21.3405 -244.952 6.7327C-261.099 0.286606 -271.551 -0.485878 -278.018 5.88234C-281.999 9.79743 -282.937 16.8849 -279.018 28.4481Z" stroke="#F2F2F2" stroke-width="1.5" stroke-miterlimit="79.8403"/>
<path d="M-277.786 18.774C-271.508 10.4615 -259.446 9.69045 -239.997 14.4662C-195.814 25.3018 -138.599 44.1991 -111.945 64.4499C-78.6913 89.0268 -95.6156 107.47 -118.226 119.508C-145.707 133.47 -182.044 145.151 -203.782 134.863C-221.048 126.71 -266.529 61.6871 -275.095 44.8263C-281.531 32.1558 -281.657 23.9117 -277.786 18.774Z" stroke="#F2F2F2" stroke-width="1.5" stroke-miterlimit="79.8403"/>
<path d="M-277.554 31.6658C-271.453 21.3727 -257.818 19.0447 -235.029 22.1636C-183.259 29.2765 -115.682 44.0189 -82.723 64.0029C-41.6954 88.1057 -58.6398 111.314 -82.8821 127.784C-112.446 147.077 -152.402 164.843 -178.476 155.691C-199.186 148.424 -259.289 79.4183 -271.22 61.1053C-280.125 47.4268 -281.314 38.0261 -277.554 31.6658Z" stroke="#F2F2F2" stroke-width="1.5" stroke-miterlimit="79.8403"/>
<path d="M-277.359 44.5441C-271.434 32.2705 -256.228 28.3856 -230.111 29.8836C-170.791 33.2605 -92.7647 43.8386 -53.5381 63.5425C-4.74985 87.2073 -21.6885 115.109 -47.5516 136.096C-79.1594 160.733 -122.735 184.584 -153.133 176.533C-177.286 170.151 -252.025 97.199 -267.297 77.4834C-278.732 62.7338 -281.009 52.1269 -277.359 44.5441Z" stroke="#F2F2F2" stroke-width="1.5" stroke-miterlimit="79.8403"/>
<path d="M-277.14 57.472C-271.405 43.2541 -254.612 37.776 -225.155 37.6172C-158.272 37.2219 -69.8605 43.6945 -24.3286 63.1316C32.2202 86.3585 15.2743 118.989 -12.234 144.444C-45.9236 174.412 -93.0814 204.361 -127.852 197.433C-155.449 191.936 -244.811 115.002 -263.424 93.8842C-277.326 78.0048 -280.653 66.2051 -277.14 57.472Z" stroke="#F2F2F2" stroke-width="1.5" stroke-miterlimit="79.8403"/>
<path d="M-276.908 70.3637C-271.349 54.1653 -252.947 47.1437 -220.187 45.3145C-145.754 41.1832 -46.9303 43.4782 4.90676 62.6485C69.2161 85.4374 52.263 122.797 23.1224 152.684C-12.6115 187.996 -63.3757 223.993 -102.496 218.238C-133.549 213.663 -237.534 132.747 -259.512 110.177C-275.97 93.2984 -280.311 80.3195 -276.908 70.3637Z" stroke="#F2F2F2" stroke-width="1.5" stroke-miterlimit="79.8403"/>
<path d="M-276.675 83.2555C-271.306 65.1127 -251.332 56.5342 -215.232 53.0481C-133.249 45.1806 -24.026 43.3341 34.1162 62.2377C106.186 84.5886 89.2259 126.678 58.4773 161.046C20.6617 201.689 -33.6844 243.784 -77.1651 239.115C-111.662 235.426 -230.27 150.528 -255.588 126.555C-274.564 108.569 -280.006 94.4204 -276.675 83.2555Z" stroke="#F2F2F2" stroke-width="1.5" stroke-miterlimit="79.8403"/>
<path d="M-276.481 96.1338C-271.288 76.0105 -249.741 65.8751 -210.301 60.732C-120.717 49.1058 -1.09584 43.1177 63.3516 61.7546C143.22 83.6809 126.228 130.45 93.8208 169.321C53.9609 215.309 -4.00456 263.489 -51.8215 259.956C-89.762 257.153 -223.006 168.309 -251.652 142.897C-273.158 123.84 -279.663 108.535 -276.481 96.1338Z" stroke="#F2F2F2" stroke-width="1.5" stroke-miterlimit="79.8403"/>
<path d="M-276.249 109.026C-271.245 86.9579 -248.075 75.2428 -205.308 68.479C-108.212 53.1033 21.8084 42.9736 92.561 61.3438C180.19 82.8321 163.19 134.33 129.138 177.67C87.2096 228.952 25.6752 283.194 -26.4779 280.798C-67.8621 278.88 -215.729 186.053 -247.766 159.262C-271.765 139.147 -279.307 122.613 -276.249 109.026Z" stroke="#F2F2F2" stroke-width="1.5" stroke-miterlimit="79.8403"/>
<path d="M-276.016 121.917C-271.19 97.8691 -246.447 84.5971 -200.34 76.1763C-95.6939 57.0646 44.7386 42.7572 121.783 60.8968C217.173 81.9471 200.166 138.174 164.482 185.946C120.458 242.595 55.3421 302.935 -1.18463 301.661C-46.0124 300.629 -208.515 203.857 -243.88 175.626C-270.359 154.418 -279.002 136.714 -276.016 121.917Z" stroke="#F2F2F2" stroke-width="1.5" stroke-miterlimit="79.8403"/>
<path d="M-275.822 134.796C-271.171 108.767 -244.857 93.9379 -195.409 83.8603C-83.2 60.9763 67.6184 42.5636 150.981 60.4003C254.131 81.0126 237.118 141.969 199.825 194.221C153.758 256.215 85.0218 322.64 24.1719 322.467C-24.1124 322.356 -201.262 221.552 -239.93 191.932C-268.966 169.725 -278.66 150.828 -275.822 134.796Z" stroke="#F2F2F2" stroke-width="1.5" stroke-miterlimit="79.8403"/>
<path d="M-275.589 147.687C-271.129 119.714 -243.229 103.292 -190.454 91.5938C-70.6573 64.9872 90.5356 42.3834 180.191 59.9894C291.138 80.1772 274.093 145.813 235.143 202.57C186.993 269.894 114.676 342.417 49.4522 343.367C-2.2254 344.119 -194.011 239.369 -236.044 208.297C-267.56 184.996 -278.317 164.942 -275.589 147.687Z" stroke="#F2F2F2" stroke-width="1.5" stroke-miterlimit="79.8403"/>
<path d="M-275.357 160.579C-271.073 130.626 -241.563 112.66 -185.485 99.2912C-58.1764 68.9351 113.453 42.2031 209.426 59.5063C328.134 79.2561 311.082 149.621 270.486 210.845C220.292 283.515 144.331 362.072 74.8087 364.172C19.6372 365.832 -186.747 257.149 -232.145 224.625C-266.167 200.303 -278.012 179.043 -275.357 160.579Z" stroke="#F2F2F2" stroke-width="1.5" stroke-miterlimit="79.8403"/>
<path d="M-228.222 241.003C-179.507 274.88 41.5371 387.559 100.152 385.013C174.048 381.79 253.541 297.158 305.867 219.135C348.058 153.465 365.117 78.3712 238.648 59.0594C136.383 41.9868 -45.6207 72.9099 -180.517 106.989C-239.935 122.014 -271.017 141.537 -275.112 173.435C-277.656 193.122 -264.761 215.574 -228.222 241.003Z" stroke="#F2F2F2" stroke-width="1.5" stroke-miterlimit="79.8403"/>
</svg>
