<svg width="369" height="671" viewBox="0 0 369 671" fill="none" xmlns="http://www.w3.org/2000/svg">
<path d="M-91.0983 644.13C-73.4294 641.482 -1.71677 620.196 10.6771 607.124C26.3562 590.629 26.6926 554.283 22.355 525.277C18.3156 501.212 6.81394 480.418 -25.0399 502.933C-51.0751 520.828 -84.9777 566.704 -107.825 603.254C-117.904 619.368 -120.77 630.462 -115.179 638.659C-111.743 643.705 -104.301 646.094 -91.0983 644.13Z" stroke="#E8E8E8" stroke-width="1.5" stroke-miterlimit="79.8403"/>
<path d="M-101.265 640.92C-108.985 632.548 -107.466 619.422 -98.5399 599.429C-78.2782 554.009 -46.8056 496.139 -19.8293 471.409C13.0865 440.422 29.6308 462.221 38.1779 488.889C47.8449 521.172 53.3347 562.538 38.0335 583.919C25.8999 600.905 -52.9083 637.168 -72.715 643.099C-87.5991 647.556 -96.4924 646.085 -101.265 640.92Z" stroke="#E8E8E8" stroke-width="1.5" stroke-miterlimit="79.8403"/>
<path d="M-87.3516 643.181C-97.2364 634.613 -97.0853 619.492 -89.2917 595.583C-71.5569 541.276 -42.5362 471.45 -14.6188 439.886C19.301 400.444 40.9679 423.192 53.9644 452.479C68.9609 488.04 80.2913 534.484 65.3682 560.752C53.5165 581.615 -32.4235 632.833 -54.4479 642.101C-70.8972 649.017 -81.2418 648.466 -87.3516 643.181Z" stroke="#E8E8E8" stroke-width="1.5" stroke-miterlimit="79.8403"/>
<path d="M-73.4596 645.48C-85.5093 636.716 -86.7269 619.6 -80.0288 591.797C-64.8428 528.639 -38.2667 446.761 -9.42995 408.4C25.5301 360.524 52.2467 384.18 69.7872 416.09C90.1349 454.891 107.306 506.414 92.7245 537.547C81.1549 562.287 -11.8807 628.482 -36.0646 641.071C-54.159 650.5 -66.013 650.883 -73.4596 645.48Z" stroke="#E8E8E8" stroke-width="1.5" stroke-miterlimit="79.8403"/>
<path d="M-59.5094 647.762C-73.6877 638.823 -76.3103 619.692 -70.7442 587.972C-58.1432 515.944 -33.9608 422.093 -4.18306 376.897C31.8173 320.587 63.6201 345.172 85.6465 379.722C111.324 421.801 134.357 478.365 120.132 514.422C108.844 543.039 8.67669 624.189 -17.6667 640.098C-37.4571 651.961 -50.7988 653.243 -59.5094 647.762Z" stroke="#E8E8E8" stroke-width="1.5" stroke-miterlimit="79.8403"/>
<path d="M-45.5956 650.023C-61.9388 640.889 -65.9084 619.725 -61.4959 584.126C-51.4436 503.248 -29.7276 397.383 0.991169 345.352C38.0318 280.608 74.9207 306.122 101.397 343.292C132.425 388.611 161.263 450.232 147.452 491.196C136.483 523.711 29.1832 619.816 0.622141 639.063C-20.7405 653.482 -35.5483 655.623 -45.5956 650.023Z" stroke="#E8E8E8" stroke-width="1.5" stroke-miterlimit="79.8403"/>
<path d="M-31.6818 652.284C-50.1536 642.975 -55.4919 619.816 -52.2113 580.302C-44.7077 490.574 -25.4218 372.716 6.23812 313.849C44.319 240.672 86.2941 267.114 117.278 306.886C153.635 355.483 188.336 422.146 174.845 468.012C164.157 504.404 49.726 615.464 19.0054 638.032C-4.03862 654.943 -20.3195 658.041 -31.6818 652.284Z" stroke="#E8E8E8" stroke-width="1.5" stroke-miterlimit="79.8403"/>
<path d="M-17.7897 654.583C-38.4265 645.077 -45.1334 619.924 -42.9847 576.494C-38.0445 477.858 -21.1886 348.006 11.4123 282.305C50.5553 200.655 97.5584 228.043 133.064 270.477C174.773 322.313 215.314 394.055 202.201 444.807C191.796 485.076 70.2688 611.113 37.3524 636.98C12.6633 656.405 -5.06893 660.421 -17.7897 654.583Z" stroke="#E8E8E8" stroke-width="1.5" stroke-miterlimit="79.8403"/>
<path d="M-3.87587 656.844C-26.6412 647.164 -34.7315 619.957 -33.6784 572.631C-31.3085 465.183 -16.8828 323.338 16.6592 250.802C56.8424 160.719 108.932 189.036 148.923 234.109C195.925 289.202 242.293 365.964 229.558 421.602C219.434 465.748 90.7753 606.74 55.714 635.987C29.4016 657.887 10.1453 662.781 -3.87587 656.844Z" stroke="#E8E8E8" stroke-width="1.5" stroke-miterlimit="79.8403"/>
<path d="M10.0379 659.105C-14.8924 649.229 -24.3513 620.027 -24.4301 568.786C-24.609 452.488 -12.6496 298.628 21.8698 219.278C63.0933 120.761 120.269 150.007 164.71 197.699C217.078 256.091 269.307 337.894 256.929 398.456C247.087 446.479 111.333 602.447 74.0755 634.994C46.1035 659.349 25.3741 665.199 10.0379 659.105Z" stroke="#E8E8E8" stroke-width="1.5" stroke-miterlimit="79.8403"/>
<path d="M23.93 661.404C-3.16524 651.332 -13.9928 620.135 -15.2036 564.978C-17.9675 439.809 -8.40184 273.977 27.0222 187.771C69.2861 80.8199 131.548 110.995 180.496 161.289C238.216 222.922 296.286 309.803 284.249 375.23C274.726 427.151 131.781 598.091 92.3861 633.921C62.8417 660.831 40.6246 667.579 23.93 661.404Z" stroke="#E8E8E8" stroke-width="1.5" stroke-miterlimit="79.8403"/>
<path d="M37.8438 663.665C8.61999 653.418 -3.61264 620.205 -5.91896 561.153C-11.2099 427.097 -4.13236 249.288 32.2691 156.268C75.595 40.8456 142.885 71.9657 196.356 124.922C259.404 189.832 323.337 281.754 311.656 352.104C302.4 407.844 152.36 593.761 110.748 632.927C79.5436 662.293 55.8752 669.959 37.8438 663.665Z" stroke="#E8E8E8" stroke-width="1.5" stroke-miterlimit="79.8403"/>
<path d="M51.7576 665.926C20.3688 655.483 6.78931 620.238 3.32933 557.307C-4.53203 414.44 0.137161 224.599 37.4434 124.724C81.8095 0.867015 154.185 32.916 212.142 88.512C280.542 156.662 350.257 253.679 338.976 328.879C330.017 388.554 172.903 589.409 129.073 631.913C96.2819 663.775 71.104 672.378 51.7576 665.926Z" stroke="#E8E8E8" stroke-width="1.5" stroke-miterlimit="79.8403"/>
<path d="M147.456 630.882C193.388 585.074 357.655 369.226 366.332 305.674C377.257 225.551 301.694 123.551 227.95 52.0646C165.522 -6.11293 88.0603 -39.0906 42.6539 93.2001C4.37031 199.889 2.18923 401.707 12.5776 553.462C17.1695 620.308 32.1177 657.548 65.6351 668.166C86.3182 674.737 112.984 665.237 147.456 630.882Z" stroke="#E8E8E8" stroke-width="1.5" stroke-miterlimit="79.8403"/>
</svg>
