<svg width="420" height="839" viewBox="0 0 420 839" fill="none" xmlns="http://www.w3.org/2000/svg">
<path d="M644.817 530.338C627.189 547.496 544.535 608.092 520.35 610.507C489.796 613.597 451.202 582.788 424.269 553.136C402.294 528.05 390.032 497.564 440.512 481.852C481.236 468.574 558.063 470.649 615.774 476.88C641.224 479.621 655.325 485.985 659.27 499.165C661.704 507.272 657.973 517.505 644.817 530.338Z" stroke="#E8E8E8" stroke-width="2" stroke-miterlimit="79.8403"/>
<path d="M642.968 461.05C635.686 448.037 619.194 444.701 591.646 447.872C529.088 455.086 447.257 471.228 407.314 495.037C357.617 523.708 377.911 553.049 407.121 574.33C442.723 599.259 490.92 622.58 522.49 612.06C547.542 603.673 620.551 519.837 635.085 497.496C645.973 480.723 647.43 469.036 642.968 461.05Z" stroke="#E8E8E8" stroke-width="2" stroke-miterlimit="79.8403"/>
<path d="M626.616 422.868C615.931 410.073 597.116 409.714 567.411 418.788C499.957 439.381 413.228 473.814 374.074 508.097C325.161 549.727 353.487 577.923 389.991 595.407C434.261 615.614 492.043 631.563 524.648 613.497C550.539 599.313 613.912 492.179 625.361 464.596C633.973 443.942 633.222 430.751 626.616 422.868Z" stroke="#E8E8E8" stroke-width="2" stroke-miterlimit="79.8403"/>
<path d="M610.314 384.753C596.293 372.125 575.144 374.803 543.283 389.779C471.041 423.826 379.248 476.468 340.933 521.29C292.853 575.945 329.163 602.93 372.892 616.666C425.774 632.142 493.15 640.662 526.83 615.175C553.537 594.953 607.273 464.52 615.687 431.762C621.914 407.151 619.007 392.523 610.314 384.753Z" stroke="#E8E8E8" stroke-width="2" stroke-miterlimit="79.8403"/>
<path d="M594.02 346.579C576.604 334.111 553.124 339.825 519.163 360.713C442.017 408.196 345.277 479.063 307.742 534.417C260.447 602.031 304.788 627.871 355.753 637.801C417.304 648.555 494.273 649.644 528.979 616.67C556.485 590.526 600.643 436.804 605.905 398.853C609.914 370.37 604.741 354.229 594.02 346.579Z" stroke="#E8E8E8" stroke-width="2" stroke-miterlimit="79.8403"/>
<path d="M577.727 308.406C556.916 296.097 531.111 304.788 494.986 331.637C412.994 392.566 311.297 481.716 274.552 547.544C228.04 628.116 280.356 652.804 338.614 658.936C408.776 664.959 495.397 658.627 531.128 618.166C559.499 586.05 593.955 409.079 596.19 365.895C597.914 333.588 590.525 316.002 577.727 308.406Z" stroke="#E8E8E8" stroke-width="2" stroke-miterlimit="79.8403"/>
<path d="M561.424 270.29C537.278 258.149 509.14 269.877 470.858 302.629C384.019 377.002 277.318 484.37 241.419 560.679C195.741 654.276 256.04 677.753 321.591 680.088C400.413 681.446 496.578 667.618 533.393 619.678C562.563 581.64 587.44 381.379 586.582 333.011C585.913 296.806 576.318 277.716 561.424 270.29Z" stroke="#E8E8E8" stroke-width="2" stroke-miterlimit="79.8403"/>
<path d="M545.131 232.117C517.581 220.193 487.119 234.899 446.739 273.562C354.996 361.373 243.404 486.974 208.229 573.806C163.334 680.362 231.666 702.693 304.443 701.281C391.935 697.917 497.693 676.659 535.534 621.231C565.561 577.279 580.744 353.712 576.85 300.169C573.913 260.024 562.044 239.481 545.131 232.117Z" stroke="#E8E8E8" stroke-width="2" stroke-miterlimit="79.8403"/>
<path d="M528.828 194.001C497.942 182.245 465.09 199.979 422.553 244.545C325.972 345.743 209.367 489.619 175.03 586.99C130.92 706.505 207.275 727.75 287.295 722.474C383.407 714.321 498.816 685.642 537.675 622.784C568.501 572.91 574.105 326.053 567.118 267.327C561.913 223.242 547.828 201.253 528.828 194.001Z" stroke="#E8E8E8" stroke-width="2" stroke-miterlimit="79.8403"/>
<path d="M512.477 155.819C478.196 144.222 443.077 164.943 398.376 215.47C296.948 330.113 175.396 492.214 141.848 600.059C98.5709 732.599 182.851 752.624 270.164 743.552C374.936 730.734 499.94 694.624 539.824 624.279C571.515 568.434 567.417 298.329 557.403 234.368C549.855 186.452 533.621 162.967 512.477 155.819Z" stroke="#E8E8E8" stroke-width="2" stroke-miterlimit="79.8403"/>
<path d="M496.183 117.646C458.566 106.217 421.056 129.964 374.256 186.403C267.983 314.491 141.425 494.809 108.658 613.186C66.1644 758.684 158.477 777.565 253.075 764.753C366.458 747.204 501.055 703.665 542.023 625.841C574.513 564.074 560.836 270.678 547.728 201.534C537.854 149.67 519.405 124.74 496.183 117.646Z" stroke="#E8E8E8" stroke-width="2" stroke-miterlimit="79.8403"/>
<path d="M479.881 79.5303C438.869 68.2604 399.027 95.0443 350.07 157.386C238.95 298.919 107.379 497.512 75.4588 626.37C33.8074 784.836 134.103 802.506 235.927 785.946C357.979 763.675 502.17 712.706 544.222 627.403C577.569 559.722 554.197 243.02 537.996 168.692C525.854 112.888 505.14 86.4459 479.881 79.5303Z" stroke="#E8E8E8" stroke-width="2" stroke-miterlimit="79.8403"/>
<path d="M463.587 41.3569C419.172 30.3043 377.006 60.0663 325.951 128.319C209.927 283.289 73.4654 500.116 42.2683 639.497C1.40085 810.922 109.72 827.505 218.846 807.09C349.567 780.096 503.351 721.697 546.371 628.898C580.517 555.295 547.567 215.303 528.281 135.734C513.854 76.1066 490.924 48.2184 463.587 41.3569Z" stroke="#E8E8E8" stroke-width="2" stroke-miterlimit="79.8403"/>
<path d="M518.607 102.9C540.928 187.645 583.581 550.885 548.569 630.46C504.475 730.68 341.088 796.566 201.707 828.225C85.3458 852.445 -30.9561 837.073 9.13586 652.632C39.4858 502.769 180.961 267.668 301.823 99.31C355.035 25.1545 399.534 -7.64355 447.343 3.2498C476.716 9.93291 501.853 39.3246 518.607 102.9Z" stroke="#E8E8E8" stroke-width="2" stroke-miterlimit="79.8403"/>
</svg>
