<svg width="652" height="657" viewBox="0 0 652 657" fill="none" xmlns="http://www.w3.org/2000/svg">
<path d="M727.062 491.746C751.139 488.492 852.567 489.263 873.295 501.657C899.349 517.224 911.839 564.502 915.774 603.961C918.42 636.829 910.205 668.322 860.796 650.954C820.576 637.415 760.795 590.36 718.609 551.326C700.039 534.141 692.562 520.71 697.198 507.95C700.008 500.084 709.017 494.146 727.062 491.746Z" stroke="#E2E2E2" stroke-opacity="0.5" stroke-width="2" stroke-miterlimit="79.8403"/>
<path d="M703.251 490.047C697.803 500.734 702.879 513.297 717.342 530.419C750.119 569.258 797.469 617.059 831.272 633.276C872.698 653.867 883.375 627.145 884.599 598.03C885.428 562.965 879.628 520.134 858.413 503.644C841.612 490.53 752.685 478.837 731.186 479.07C715.112 479.23 706.581 483.435 703.251 490.047Z" stroke="#E2E2E2" stroke-opacity="0.5" stroke-width="2" stroke-miterlimit="79.8403"/>
<path d="M709.304 472.144C703.044 480.757 705.757 492.526 716.075 509.511C739.443 548.155 774.378 596.648 801.764 615.542C835.263 639.373 848.291 617.388 853.459 591.987C859.034 561.373 859.868 522.972 843.621 505.538C830.691 491.685 754.303 469.144 735.383 466.356C721.207 464.314 713.138 466.842 709.304 472.144Z" stroke="#E2E2E2" stroke-opacity="0.5" stroke-width="2" stroke-miterlimit="79.8403"/>
<path d="M715.357 454.241C708.285 460.781 708.653 471.699 714.807 488.603C728.768 527.053 751.287 576.236 772.312 597.826C797.884 624.896 813.318 607.665 822.357 586.017C832.696 559.797 840.22 525.844 828.794 507.543C819.719 493.007 755.849 459.489 739.545 453.752C727.303 449.398 719.711 450.193 715.357 454.241Z" stroke="#E2E2E2" stroke-opacity="0.5" stroke-width="2" stroke-miterlimit="79.8403"/>
<path d="M721.41 436.338C713.509 440.86 711.531 450.927 713.523 467.751C718.092 505.951 728.124 555.863 742.77 580.203C760.377 610.44 778.273 597.98 791.182 580.085C806.285 558.26 820.426 528.792 813.913 509.53C808.708 494.256 757.377 449.89 743.669 441.075C733.398 434.482 726.323 433.617 721.41 436.338Z" stroke="#E2E2E2" stroke-opacity="0.5" stroke-width="2" stroke-miterlimit="79.8403"/>
<path d="M727.518 418.452C718.805 420.901 714.427 430.1 712.311 446.86C707.472 484.866 705.089 535.469 713.318 562.487C722.998 595.964 743.3 588.258 760.08 574.116C779.93 556.74 800.722 531.647 799.103 511.479C797.826 495.485 758.94 440.18 747.866 428.361C739.566 419.528 732.896 416.969 727.518 418.452Z" stroke="#E2E2E2" stroke-opacity="0.5" stroke-width="2" stroke-miterlimit="79.8403"/>
<path d="M733.554 400.605C724.029 400.981 717.288 409.384 711.026 426.008C696.796 463.763 681.981 515.113 683.848 544.826C685.602 581.543 708.255 578.573 728.978 568.146C753.591 555.165 781.074 534.519 784.277 513.484C786.87 496.751 760.524 430.598 752.028 415.757C745.661 404.612 739.452 400.375 733.554 400.605Z" stroke="#E2E2E2" stroke-opacity="0.5" stroke-width="2" stroke-miterlimit="79.8403"/>
<path d="M739.607 382.702C729.27 381.004 720.184 388.557 709.759 405.1C686.065 442.644 658.89 494.702 654.324 527.147C648.15 567.104 673.209 568.889 697.804 562.214C727.18 553.628 761.28 537.467 769.395 515.471C775.86 498 762.014 420.926 756.135 403.136C751.756 389.696 746.026 383.727 739.607 382.702Z" stroke="#E2E2E2" stroke-opacity="0.5" stroke-width="2" stroke-miterlimit="79.8403"/>
<path d="M745.66 364.799C734.511 361.028 723.007 367.768 708.474 384.248C675.39 421.541 635.782 474.346 624.799 509.469C610.66 552.593 638.181 559.149 666.646 556.227C700.787 552.035 741.576 540.322 754.585 517.421C764.905 499.266 763.615 411.288 760.332 390.421C757.851 374.781 752.582 367.133 745.66 364.799Z" stroke="#E2E2E2" stroke-opacity="0.5" stroke-width="2" stroke-miterlimit="79.8403"/>
<path d="M751.768 346.913C739.807 341.069 725.958 346.958 707.262 363.357C664.77 400.456 612.692 453.934 595.402 491.77C573.336 538.134 603.263 549.443 635.599 550.274C674.487 550.532 721.91 543.249 739.832 519.387C754.022 500.495 765.233 401.595 764.567 377.779C763.947 359.865 759.155 350.485 751.768 346.913Z" stroke="#E2E2E2" stroke-opacity="0.5" stroke-width="2" stroke-miterlimit="79.8403"/>
<path d="M757.821 329.01C744.993 321.076 728.836 326.187 705.939 342.432C654.039 379.336 589.529 433.561 565.822 474.074C535.829 523.678 568.107 539.724 604.387 544.27C648.038 548.923 702.096 546.07 724.894 521.357C742.956 501.727 766.706 391.979 768.636 365.086C770.059 344.893 765.711 333.891 757.821 329.01Z" stroke="#E2E2E2" stroke-opacity="0.5" stroke-width="2" stroke-miterlimit="79.8403"/>
<path d="M763.874 311.107C750.234 301.1 731.659 305.398 704.672 321.525C643.38 358.179 566.438 413.15 536.315 456.341C498.395 509.184 533.096 529.929 573.229 538.282C621.644 547.33 682.392 548.924 710.03 523.289C732.018 502.938 768.214 382.251 772.76 352.409C776.21 329.995 772.285 317.243 763.874 311.107Z" stroke="#E2E2E2" stroke-opacity="0.5" stroke-width="2" stroke-miterlimit="79.8403"/>
<path d="M769.927 293.204C755.475 281.123 734.555 284.571 703.404 300.617C632.705 337.076 543.347 392.738 506.845 438.679C461.016 494.708 498.106 520.262 542.127 532.313C595.289 545.81 662.671 551.834 695.22 525.239C721.08 504.149 769.832 372.559 776.957 339.695C782.305 315.079 778.841 300.649 769.927 293.204Z" stroke="#E2E2E2" stroke-opacity="0.5" stroke-width="2" stroke-miterlimit="79.8403"/>
<path d="M775.98 275.301C760.716 261.147 737.433 263.8 702.137 279.709C622.029 315.974 520.257 372.327 477.338 420.946C423.526 480.197 463.078 510.522 510.97 526.325C568.895 544.218 642.911 554.672 680.394 527.243C710.108 505.471 771.361 362.959 781.119 327.091C788.4 300.163 785.414 284.001 775.98 275.301Z" stroke="#E2E2E2" stroke-opacity="0.5" stroke-width="2" stroke-miterlimit="79.8403"/>
<path d="M782.089 257.416C766.012 241.188 740.329 242.973 700.908 258.874C611.409 294.889 497.149 351.971 447.868 403.285C386.129 465.775 428.032 500.837 479.868 520.356C542.557 542.642 623.263 557.544 665.584 529.192C699.17 506.682 772.979 353.266 785.316 314.376C794.513 285.192 791.971 267.407 782.089 257.416Z" stroke="#E2E2E2" stroke-opacity="0.5" stroke-width="2" stroke-miterlimit="79.8403"/>
<path d="M788.142 239.513C771.253 221.212 743.207 222.201 699.64 237.966C600.733 273.786 474.058 331.56 418.399 385.624C348.733 451.354 393.042 491.17 448.693 514.424C516.129 541.16 603.469 560.492 650.703 531.18C688.16 507.931 774.452 343.65 789.423 301.755C800.608 270.276 798.544 250.759 788.142 239.513Z" stroke="#E2E2E2" stroke-opacity="0.5" stroke-width="2" stroke-miterlimit="79.8403"/>
<path d="M794.195 221.61C776.477 201.291 746.103 201.374 698.373 217.059C590.057 252.684 450.967 311.148 388.892 367.89C311.316 436.805 358.031 481.375 417.553 508.381C489.752 539.513 583.727 563.275 635.855 533.057C677.184 509.069 776.032 333.884 793.564 289.023C806.759 255.377 805.1 234.165 794.195 221.61Z" stroke="#E2E2E2" stroke-opacity="0.5" stroke-width="2" stroke-miterlimit="79.8403"/>
<path d="M800.248 203.707C781.718 181.315 748.981 180.602 697.106 196.151C579.382 231.582 427.86 290.792 359.422 350.229C273.864 422.366 323.041 471.707 386.434 502.467C463.397 537.993 564.044 566.257 621.011 535.116C666.211 510.391 777.543 324.34 797.726 276.42C812.854 240.461 811.674 217.517 800.248 203.707Z" stroke="#E2E2E2" stroke-opacity="0.5" stroke-width="2" stroke-miterlimit="79.8403"/>
<path d="M806.301 185.804C786.959 161.339 751.821 159.758 695.838 175.243C568.741 210.369 404.786 270.326 329.915 332.495C236.429 407.873 287.957 461.95 355.293 496.424C437.003 536.4 544.302 569.039 606.164 536.993C655.291 511.547 779.068 314.558 801.868 263.688C818.949 225.545 818.23 200.923 806.301 185.804Z" stroke="#E2E2E2" stroke-opacity="0.5" stroke-width="2" stroke-miterlimit="79.8403"/>
<path d="M812.392 167.973C792.238 141.435 754.738 139.059 694.592 154.463C558.086 189.394 381.661 250.025 300.428 314.889C199.033 393.451 252.95 452.338 324.157 490.565C410.63 534.935 524.619 572.022 591.376 539.07C644.356 512.941 780.69 305.048 806.03 251.084C825.062 210.574 824.803 184.275 812.392 167.973Z" stroke="#E2E2E2" stroke-opacity="0.5" stroke-width="2" stroke-miterlimit="79.8403"/>
<path d="M818.445 150.071C797.479 121.459 757.616 118.288 693.324 133.556C547.41 168.292 358.57 229.614 270.921 297.156C161.598 378.958 217.939 442.543 293.017 484.522C384.254 533.288 504.86 574.86 576.528 540.947C633.38 514.08 782.215 295.265 810.171 238.352C831.157 195.658 831.359 167.681 818.445 150.071Z" stroke="#E2E2E2" stroke-opacity="0.5" stroke-width="2" stroke-miterlimit="79.8403"/>
<path d="M824.498 132.168C802.72 101.483 760.457 97.4435 692.057 112.648C536.752 147.134 335.48 209.202 241.396 279.477C124.164 364.464 182.911 432.803 261.915 478.553C357.898 531.768 485.156 577.714 561.701 542.952C622.425 515.346 783.799 285.683 814.351 225.693C837.252 180.742 837.933 151.033 824.498 132.168Z" stroke="#E2E2E2" stroke-opacity="0.5" stroke-width="2" stroke-miterlimit="79.8403"/>
<path d="M830.551 114.265C807.961 81.5068 763.335 76.6719 690.79 91.7403C526.076 126.032 312.372 188.846 211.944 261.761C86.7122 350.025 147.865 423.118 230.757 472.565C331.505 530.175 465.435 580.625 546.837 544.884C611.432 516.54 785.306 275.956 818.475 213.017C843.403 165.843 844.489 134.44 830.551 114.265Z" stroke="#E2E2E2" stroke-opacity="0.5" stroke-width="2" stroke-miterlimit="79.8403"/>
<path d="M836.659 96.3789C813.258 61.5478 766.286 55.8622 689.578 70.8498C515.401 104.929 289.281 168.435 182.419 244.083C49.2778 335.531 112.837 413.378 199.655 466.595C305.167 528.6 445.731 583.479 532.028 546.833C600.477 517.806 786.925 266.263 822.672 200.302C849.498 150.927 851.045 117.846 836.659 96.3789Z" stroke="#E2E2E2" stroke-opacity="0.5" stroke-width="2" stroke-miterlimit="79.8403"/>
<path d="M842.712 78.476C818.499 41.5716 769.109 35.0734 688.293 49.9974C504.725 83.8269 266.173 148.079 152.95 226.422C11.8986 321.055 77.847 403.711 168.481 460.664C278.739 527.118 425.954 586.372 517.128 548.876C589.449 519.111 788.38 256.702 826.762 187.736C855.611 135.956 857.619 101.198 842.712 78.476Z" stroke="#E2E2E2" stroke-opacity="0.5" stroke-width="2" stroke-miterlimit="79.8403"/>
<path d="M848.765 60.5731C823.74 21.5955 772.005 14.2464 687.026 29.0897C494.049 62.7245 243.083 127.667 123.442 208.688C-25.6085 306.599 42.7635 393.954 137.323 454.676C252.345 525.525 406.233 589.282 502.319 550.825C578.566 520.339 789.999 247.009 830.959 175.022C861.706 121.04 864.175 84.6042 848.765 60.5731Z" stroke="#E2E2E2" stroke-opacity="0.5" stroke-width="2" stroke-miterlimit="79.8403"/>
<path d="M835.138 162.363C791.544 237.354 567.629 521.55 487.51 552.774C386.529 592.137 226.062 523.967 106.221 448.707C7.77337 384.286 -62.9876 292.122 93.9728 191.027C219.975 107.311 483.374 41.6221 685.741 8.23731C774.866 -6.46982 828.964 1.67459 854.801 42.7254C870.748 67.9555 867.801 106.124 835.138 162.363Z" stroke="#E2E2E2" stroke-opacity="0.5" stroke-width="2" stroke-miterlimit="79.8403"/>
</svg>
