<svg width="582" height="683" viewBox="0 0 582 683" fill="none" xmlns="http://www.w3.org/2000/svg">
<path d="M552.466 19.2918C567.431 38.8152 617.883 128.023 617.436 152.325C616.912 183.03 581.777 217.733 549.162 240.99C521.665 259.862 489.949 268.453 480.284 216.474C471.888 174.471 482.986 98.4225 495.963 41.845C501.678 16.8942 509.657 3.63975 523.21 1.2718C531.546 -0.190917 541.269 4.71716 552.466 19.2918Z" stroke="#E8E8E8" stroke-miterlimit="79.8403"/>
<path d="M483.441 12.9772C469.662 18.6783 464.409 34.6628 464.317 62.393C464.122 125.365 470.526 208.527 489.472 250.994C512.098 303.718 543.622 287.016 568.191 260.512C597.135 228.09 625.964 182.971 619.231 150.382C613.849 124.518 539.183 42.1543 518.707 25.0931C503.331 12.3075 491.897 9.48601 483.441 12.9772Z" stroke="#E8E8E8" stroke-miterlimit="79.8403"/>
<path d="M443.601 24.7241C429.638 33.8298 427.068 52.4728 432.585 83.0389C445.1 152.446 469.092 242.624 498.531 285.539C534.118 339.01 565.451 314.196 587.107 280.003C612.381 238.417 635.017 182.912 620.912 148.409C609.872 121.029 510.936 45.4934 484.891 30.8792C465.393 19.8978 452.206 19.0912 443.601 24.7241Z" stroke="#E8E8E8" stroke-miterlimit="79.8403"/>
<path d="M403.832 36.4295C389.643 48.8683 389.814 70.1848 400.939 103.587C426.251 179.332 467.73 276.68 507.734 320.002C556.354 374.177 587.423 341.294 606.207 299.483C627.797 248.789 644.182 182.883 622.835 146.439C605.894 117.539 482.688 48.8326 451.147 36.6239C427.44 27.5446 412.572 28.7116 403.832 36.4295Z" stroke="#E8E8E8" stroke-miterlimit="79.8403"/>
<path d="M364.007 48.1198C349.577 63.9482 352.489 87.9382 369.237 124.12C407.316 206.316 466.311 310.721 516.866 354.506C578.446 409.427 609.324 368.433 625.18 318.99C643.099 259.131 653.235 182.825 624.572 144.481C601.845 114.09 454.384 52.1565 417.316 42.4665C389.502 35.135 372.866 38.3734 364.007 48.1198Z" stroke="#E8E8E8" stroke-miterlimit="79.8403"/>
<path d="M324.182 59.8101C309.511 79.0281 315.107 105.677 337.52 144.709C388.38 233.299 464.949 344.776 525.997 389.01C600.539 444.677 631.209 395.628 644.152 338.496C658.386 269.53 662.287 182.766 626.31 142.522C597.754 110.57 426.065 55.537 383.444 48.2375C351.564 42.7253 333.231 47.9938 324.182 59.8101Z" stroke="#E8E8E8" stroke-miterlimit="79.8403"/>
<path d="M284.413 71.5155C269.516 94.0666 277.853 123.389 305.874 165.257C369.516 260.242 463.587 378.832 535.144 423.458C622.718 479.829 653.124 422.71 663.154 357.889C673.775 279.774 671.355 182.65 628.078 140.451C593.735 107.009 397.791 58.7479 349.659 53.9105C313.626 50.3156 293.54 57.599 284.413 71.5155Z" stroke="#E8E8E8" stroke-miterlimit="79.8403"/>
<path d="M244.588 83.2058C229.507 109.162 240.527 141.142 274.172 185.79C350.581 287.225 462.184 412.816 544.275 457.962C644.81 515.079 675.025 449.849 682.183 377.411C689.134 290.131 680.464 182.606 629.872 138.508C589.758 103.519 369.529 62.1435 315.899 59.7118C275.688 57.9059 253.891 67.276 244.588 83.2058Z" stroke="#E8E8E8" stroke-miterlimit="79.8403"/>
<path d="M204.82 94.9113C189.512 124.2 203.258 158.911 242.511 206.394C331.645 314.209 460.806 446.929 553.463 492.481C666.959 550.344 697.038 477.018 701.212 396.933C704.421 300.529 689.517 182.547 631.667 136.565C585.765 100.086 341.281 65.4826 282.14 65.513C237.75 65.4962 214.256 76.8964 204.82 94.9113Z" stroke="#E8E8E8" stroke-miterlimit="79.8403"/>
<path d="M164.98 106.658C149.431 139.337 165.876 176.649 210.794 226.984C312.71 341.192 459.387 480.969 562.537 526.97C689.066 585.538 718.867 504.198 720.128 416.424C719.724 310.871 698.569 182.488 633.404 134.606C581.675 96.5658 312.962 68.8631 248.268 71.284C199.796 73.1431 174.565 86.5016 164.98 106.658Z" stroke="#E8E8E8" stroke-miterlimit="79.8403"/>
<path d="M125.155 118.348C109.38 154.36 128.55 194.402 179.092 247.517C293.79 368.12 457.969 515.01 571.669 561.474C711.159 620.788 740.767 531.337 739.172 435.889C735.082 321.229 707.678 182.444 635.214 132.606C577.697 93.0761 284.73 72.1457 214.524 77.0287C161.858 80.7334 134.931 96.122 125.155 118.348Z" stroke="#E8E8E8" stroke-miterlimit="79.8403"/>
<path d="M85.386 130.054C69.37 169.455 91.2814 212.171 147.431 268.121C274.911 395.118 456.648 549.137 580.857 595.993C733.323 655.996 762.668 558.476 758.201 455.41C750.441 331.586 716.787 182.401 637.023 130.607C573.735 89.5297 256.482 75.4848 180.765 82.83C123.92 88.3237 95.2248 105.784 85.386 130.054Z" stroke="#E8E8E8" stroke-miterlimit="79.8403"/>
<path d="M45.5609 141.744C29.3605 184.55 53.9559 229.924 115.729 288.654C255.975 422.102 455.244 583.122 589.988 630.498C755.415 691.246 784.625 585.63 777.188 474.86C765.759 341.871 725.855 182.285 638.761 128.648C569.685 86.0814 228.178 78.8088 146.893 88.6009C85.9823 95.914 55.5905 115.404 45.5609 141.744Z" stroke="#E8E8E8" stroke-miterlimit="79.8403"/>
<path d="M113.149 94.3456C199.931 82.1479 565.667 82.5199 640.57 126.649C734.908 182.226 781.118 352.229 796.16 494.367C806.525 612.769 777.579 726.455 599.135 664.945C453.882 617.177 237.055 449.029 84.0832 309.202C16.7019 247.636 -10.634 199.589 5.80755 153.393C15.8995 125.009 48.0441 103.504 113.149 94.3456Z" stroke="#E8E8E8" stroke-miterlimit="79.8403"/>
</svg>
