<svg width="487" height="493" viewBox="0 0 487 493" fill="none" xmlns="http://www.w3.org/2000/svg">
<path d="M582.927 383.109C600.736 376.823 678.05 361.365 695.785 367.519C718.076 375.244 735.06 409.249 744.297 438.657C751.511 463.252 750.241 488.519 709.891 483.118C677.14 479.176 624.2 452.822 585.92 429.789C569.069 419.649 561.253 410.609 562.763 400.165C563.657 393.734 569.574 387.79 582.927 383.109Z" stroke="#E2E2E2" stroke-opacity="0.5" stroke-width="2" stroke-miterlimit="79.8403"/>
<path d="M564.537 385.583C562.082 394.578 567.933 403.336 581.648 414.078C612.737 438.451 656.334 467.34 684.625 474.334C719.409 483.451 723.308 461.426 719.634 439.074C714.717 412.257 703.528 380.579 684.774 371.385C669.913 364.062 600.385 369.231 584.061 372.81C571.853 375.474 566.026 380.024 564.537 385.583Z" stroke="#E2E2E2" stroke-opacity="0.5" stroke-width="2" stroke-miterlimit="79.8403"/>
<path d="M566.312 371C562.911 378.546 566.837 387.073 577.376 398.367C601.274 424.08 635.532 455.459 659.363 465.506C688.627 478.343 695.064 459.55 694.979 439.402C694.379 415.221 688.939 385.864 673.816 375.167C661.784 366.669 600.084 361.599 585.243 362.469C574.132 363.158 568.391 366.359 566.312 371Z" stroke="#E2E2E2" stroke-opacity="0.5" stroke-width="2" stroke-miterlimit="79.8403"/>
<path d="M568.086 356.418C563.739 362.514 565.746 370.764 573.104 382.656C589.811 409.709 614.73 443.578 634.146 456.682C657.89 473.239 666.91 457.683 670.364 439.779C674.085 418.188 674.44 391.158 662.849 379.038C653.643 369.411 599.733 354.006 586.417 352.219C576.412 350.842 570.76 352.649 568.086 356.418Z" stroke="#E2E2E2" stroke-opacity="0.5" stroke-width="2" stroke-miterlimit="79.8403"/>
<path d="M569.861 341.835C564.563 346.527 564.651 354.501 568.828 366.989C578.348 395.338 593.879 431.737 608.875 447.944C627.059 468.171 638.707 455.857 645.701 440.196C653.742 421.197 659.842 396.533 651.838 382.904C645.461 372.104 599.377 346.459 587.551 341.919C578.691 338.527 573.169 338.988 569.861 341.835Z" stroke="#E2E2E2" stroke-opacity="0.5" stroke-width="2" stroke-miterlimit="79.8403"/>
<path d="M571.68 327.257C565.437 330.499 563.56 338.193 564.601 351.283C566.93 380.972 573.122 419.86 583.658 439.12C596.321 463.066 610.553 453.99 621.086 440.573C633.444 424.209 645.298 401.823 640.876 386.731C637.373 374.76 599.031 338.822 588.733 331.579C581.019 326.17 575.538 325.277 571.68 327.257Z" stroke="#E2E2E2" stroke-opacity="0.5" stroke-width="2" stroke-miterlimit="79.8403"/>
<path d="M573.45 312.719C566.261 314.512 562.46 321.974 560.324 335.616C555.467 366.601 552.315 408.024 558.437 430.341C565.58 458.007 582.35 452.164 596.472 440.949C613.15 427.177 630.799 407.117 629.909 390.602C629.236 377.457 598.72 331.279 589.907 321.328C583.298 313.854 577.903 311.612 573.45 312.719Z" stroke="#E2E2E2" stroke-opacity="0.5" stroke-width="2" stroke-miterlimit="79.8403"/>
<path d="M575.225 298.137C567.089 298.48 561.369 305.666 556.052 319.905C543.96 352.225 531.513 396.143 533.171 421.558C534.793 452.943 554.147 450.337 571.808 441.367C592.807 430.185 616.202 412.492 618.898 394.468C621.054 380.149 598.324 323.682 591.036 311.074C585.577 301.538 580.272 297.902 575.225 298.137Z" stroke="#E2E2E2" stroke-opacity="0.5" stroke-width="2" stroke-miterlimit="79.8403"/>
<path d="M576.999 283.554C567.918 282.449 560.229 289.398 551.776 304.239C532.497 337.854 510.707 384.306 507.905 412.774C503.966 447.83 525.948 448.466 547.149 441.739C572.468 433.148 601.658 417.781 607.936 398.295C612.917 382.846 598.018 316.095 592.219 300.733C587.857 289.222 582.636 284.236 576.999 283.554Z" stroke="#E2E2E2" stroke-opacity="0.5" stroke-width="2" stroke-miterlimit="79.8403"/>
<path d="M578.819 268.976C568.791 266.421 559.183 273.094 547.549 288.532C521.079 323.488 489.905 372.425 482.732 403.955C473.274 442.731 497.839 446.603 522.579 442.12C552.215 436.165 587.154 423.12 597.018 402.125C604.829 385.502 597.716 308.462 593.442 290.442C590.136 276.906 585.005 270.526 578.819 268.976Z" stroke="#E2E2E2" stroke-opacity="0.5" stroke-width="2" stroke-miterlimit="79.8403"/>
<path d="M580.593 254.394C569.575 250.385 558.088 256.83 543.232 272.816C509.571 309.112 469.054 360.585 457.421 395.167C442.442 437.663 469.546 444.768 497.875 442.488C531.832 439.124 572.521 428.401 585.962 405.987C596.603 388.19 597.316 300.91 594.53 280.138C592.419 264.546 587.37 256.861 580.593 254.394Z" stroke="#E2E2E2" stroke-opacity="0.5" stroke-width="2" stroke-miterlimit="79.8403"/>
<path d="M582.368 239.811C570.404 234.353 556.947 240.563 538.96 257.105C498.112 294.696 448.252 348.703 432.16 386.339C411.66 432.554 441.351 442.852 473.216 442.861C511.493 442.087 557.977 433.691 574.955 409.809C588.47 390.842 596.925 293.269 595.664 269.838C594.743 252.234 589.739 243.15 582.368 239.811Z" stroke="#E2E2E2" stroke-opacity="0.5" stroke-width="2" stroke-miterlimit="79.8403"/>
<path d="M584.142 225.229C571.232 218.321 555.856 224.254 534.688 241.394C486.65 280.325 427.45 336.822 406.938 377.56C380.923 427.45 413.193 441.03 448.601 443.238C491.195 445.1 543.429 439.025 563.993 413.636C580.337 393.494 596.623 285.636 596.846 259.498C597.022 239.918 592.103 229.485 584.142 225.229Z" stroke="#E2E2E2" stroke-opacity="0.5" stroke-width="2" stroke-miterlimit="79.8403"/>
<path d="M585.916 210.646C572.061 202.289 554.761 207.991 530.416 225.683C475.187 265.954 406.648 324.941 381.676 368.732C350.096 422.337 384.994 439.159 423.942 443.61C470.856 448.063 528.84 444.311 553.026 417.507C572.196 396.236 596.268 278.089 598.02 249.248C599.302 227.602 594.472 215.775 585.916 210.646Z" stroke="#E2E2E2" stroke-opacity="0.5" stroke-width="2" stroke-miterlimit="79.8403"/>
<path d="M587.736 196.068C572.934 186.262 553.67 191.683 526.184 210.021C463.769 251.588 385.842 313.105 356.455 359.953C319.354 417.278 356.791 437.332 399.328 443.987C450.562 451.031 514.341 449.605 542.064 421.333C564.063 398.888 595.966 270.456 599.202 238.907C601.585 215.242 596.837 202.109 587.736 196.068Z" stroke="#E2E2E2" stroke-opacity="0.5" stroke-width="2" stroke-miterlimit="79.8403"/>
<path d="M589.51 181.486C573.762 170.23 552.575 175.419 521.912 194.309C452.306 237.217 365.04 301.224 331.234 351.174C288.613 412.218 328.633 435.51 374.664 444.404C430.215 454.084 499.743 454.98 531.053 425.2C555.882 401.581 595.566 262.904 600.331 228.653C603.864 202.926 599.206 188.399 589.51 181.486Z" stroke="#E2E2E2" stroke-opacity="0.5" stroke-width="2" stroke-miterlimit="79.8403"/>
<path d="M591.285 166.903C574.587 154.243 551.484 159.111 517.64 178.598C440.843 222.846 344.238 289.343 305.972 342.345C257.835 407.065 300.438 433.594 350.009 444.732C409.881 457.002 485.159 460.22 520.05 428.977C547.708 404.183 595.223 255.223 601.469 218.308C606.188 190.614 601.571 174.734 591.285 166.903Z" stroke="#E2E2E2" stroke-opacity="0.5" stroke-width="2" stroke-miterlimit="79.8403"/>
<path d="M593.059 152.321C575.415 138.211 550.388 142.847 513.368 162.887C429.38 208.474 323.432 277.506 280.75 333.566C227.048 402.001 272.28 431.772 325.39 445.153C389.583 460.015 470.651 465.604 509.079 432.892C539.567 406.925 594.864 247.72 602.643 208.057C608.467 178.298 603.94 161.023 593.059 152.321Z" stroke="#E2E2E2" stroke-opacity="0.5" stroke-width="2" stroke-miterlimit="79.8403"/>
<path d="M594.834 137.738C576.244 122.179 549.252 126.535 509.096 147.176C417.926 194.014 302.634 265.58 255.488 324.738C196.266 396.893 244.036 429.896 300.735 445.481C369.244 462.978 456.066 470.844 498.077 436.669C531.439 409.532 594.477 240.034 603.781 197.713C610.747 165.982 606.304 147.358 594.834 137.738Z" stroke="#E2E2E2" stroke-opacity="0.5" stroke-width="2" stroke-miterlimit="79.8403"/>
<path d="M596.649 123.205C577.113 106.197 548.198 110.321 504.86 131.559C406.499 179.737 281.823 253.789 230.263 316.004C165.525 391.833 215.873 428.119 276.112 445.947C348.941 466.036 441.559 476.228 487.151 440.59C523.338 412.323 594.207 232.54 604.955 187.462C613.03 153.622 608.673 133.648 596.649 123.205Z" stroke="#E2E2E2" stroke-opacity="0.5" stroke-width="2" stroke-miterlimit="79.8403"/>
<path d="M598.423 108.623C577.941 90.1647 547.102 94.0571 500.588 115.847C395.036 165.366 261.021 241.908 205.001 307.176C134.742 386.725 187.679 426.203 251.457 446.275C328.607 468.954 426.97 481.513 476.148 444.367C515.165 414.926 593.819 224.854 606.092 177.118C615.309 141.306 611.038 119.982 598.423 108.623Z" stroke="#E2E2E2" stroke-opacity="0.5" stroke-width="2" stroke-miterlimit="79.8403"/>
<path d="M600.198 94.0401C578.77 74.1328 545.966 77.7445 496.316 100.136C383.578 150.95 240.219 230.026 179.735 298.393C103.96 381.616 159.48 424.332 226.843 446.652C308.309 471.966 412.426 486.803 465.181 448.238C507.028 417.623 593.509 217.311 607.271 166.822C617.588 128.99 613.407 106.272 600.198 94.0401Z" stroke="#E2E2E2" stroke-opacity="0.5" stroke-width="2" stroke-miterlimit="79.8403"/>
<path d="M601.972 79.4577C579.598 58.101 544.871 61.481 492.044 84.425C372.115 136.579 219.413 218.19 154.518 289.569C73.1737 376.552 131.277 422.505 202.183 447.024C287.97 474.93 397.878 492.137 454.174 452.06C498.85 420.27 593.117 209.669 608.404 156.523C619.913 116.678 615.771 92.6067 601.972 79.4577Z" stroke="#E2E2E2" stroke-opacity="0.5" stroke-width="2" stroke-miterlimit="79.8403"/>
<path d="M603.791 64.8795C580.472 42.0735 543.825 45.1771 487.817 68.7181C360.652 122.208 198.611 206.309 129.251 280.785C42.3916 371.444 103.078 420.634 177.569 447.401C267.677 477.897 383.334 497.427 443.212 455.886C490.713 422.967 592.816 202.037 609.586 146.182C622.192 104.362 618.136 78.9413 603.791 64.8795Z" stroke="#E2E2E2" stroke-opacity="0.5" stroke-width="2" stroke-miterlimit="79.8403"/>
<path d="M605.566 50.2971C581.3 26.0416 542.685 28.9093 483.541 53.0517C349.189 107.837 177.805 194.473 104.03 272.006C11.6543 366.34 74.9197 418.812 152.905 447.818C247.329 480.95 368.741 502.757 432.196 459.797C482.527 425.704 592.411 194.53 610.711 135.972C624.475 92.0014 620.505 65.231 605.566 50.2971Z" stroke="#E2E2E2" stroke-opacity="0.5" stroke-width="2" stroke-miterlimit="79.8403"/>
<path d="M607.34 35.7146C582.129 10.0098 541.594 12.601 479.269 37.3405C337.726 93.4657 157.003 182.592 78.7682 263.178C-19.1771 361.272 46.676 416.937 128.246 448.19C226.991 483.914 354.192 508.092 421.234 463.624C474.439 428.361 592.109 186.897 611.894 125.632C626.754 79.6855 622.869 51.5656 607.34 35.7146Z" stroke="#E2E2E2" stroke-opacity="0.5" stroke-width="2" stroke-miterlimit="79.8403"/>
<path d="M613.072 115.337C591.758 179.305 466.307 431.013 410.272 467.45C339.648 513.381 206.742 486.886 103.632 448.567C18.5176 415.114 -49.9144 356.167 53.5468 254.399C136.197 170.755 326.263 79.0947 474.993 21.6742C540.494 -3.6176 582.953 -5.97726 609.111 21.1769C625.238 37.8554 629.034 67.3696 613.072 115.337Z" stroke="#E2E2E2" stroke-opacity="0.5" stroke-width="2" stroke-miterlimit="79.8403"/>
</svg>
